{"glyphs":{"0":{"ha":697,"x_min":61,"x_max":636,"o":"m 349 177 q 271 210 302 177 q 238 288 238 241 l 238 686 q 271 764 238 731 q 349 796 302 796 q 427 764 394 796 q 459 686 459 731 l 459 288 q 427 210 459 241 q 349 177 394 177 m 349 972 q 145 888 230 972 q 61 686 61 804 l 61 288 q 145 84 61 169 q 349 0 230 0 q 551 84 467 0 q 636 288 636 169 l 636 686 q 551 888 636 804 q 349 972 467 972 m 349 155 q 442 194 404 155 q 481 288 481 233 l 481 686 q 442 779 481 740 q 349 818 404 818 q 255 779 294 818 q 216 686 216 740 l 216 288 q 255 194 216 233 q 349 155 294 155 m 349 951 q 536 873 458 951 q 614 686 614 795 l 614 288 q 536 100 614 178 q 349 22 458 22 q 161 100 239 22 q 83 288 83 178 l 83 686 q 161 873 83 795 q 349 951 239 951 z "},"1":{"ha":515,"x_min":61,"x_max":454,"o":"m 247 972 l 61 820 l 174 684 l 277 768 l 277 0 l 454 0 l 454 972 l 247 972 m 92 817 l 255 951 l 431 951 l 431 22 l 299 22 l 299 815 l 262 785 l 176 714 l 92 817 z "},"2":{"ha":741,"x_min":61,"x_max":680,"o":"m 371 972 q 168 888 252 972 q 83 686 83 804 l 260 686 q 293 764 260 731 q 371 796 326 796 l 376 795 q 450 749 426 793 q 449 654 476 701 l 61 0 l 614 0 l 614 177 l 372 177 l 601 564 q 606 833 680 697 q 382 972 533 966 q 371 972 377 972 m 371 951 q 382 950 376 951 q 587 823 520 945 q 582 576 654 697 l 353 188 l 332 155 l 592 155 l 592 22 l 100 22 l 468 643 q 470 759 502 701 q 376 818 439 815 q 371 818 374 818 q 285 786 322 818 q 240 707 248 755 l 106 707 q 191 880 115 810 q 371 951 267 951 z "},"3":{"ha":697,"x_min":61,"x_max":636,"o":"m 370 972 q 349 972 358 972 q 145 888 230 972 q 61 686 61 804 l 61 663 l 238 663 l 238 686 q 271 764 238 731 q 349 796 302 796 q 426 764 394 796 q 459 687 458 732 q 433 625 458 650 q 370 600 407 600 l 282 600 l 282 420 l 349 420 q 427 388 394 420 q 459 309 459 355 l 459 288 q 427 210 459 241 q 349 177 394 177 q 271 210 302 177 q 238 288 238 241 l 238 309 l 61 309 l 61 288 q 145 84 61 169 q 349 0 230 0 q 551 84 467 0 q 636 288 636 169 l 636 309 q 561 503 636 420 q 635 686 635 579 l 636 707 q 558 895 636 817 q 370 972 480 972 l 370 972 m 349 951 q 369 949 357 951 l 393 948 l 393 949 q 549 872 486 941 q 614 707 614 802 l 614 692 l 614 686 q 545 518 613 589 l 530 503 l 545 488 q 614 309 614 412 l 614 288 q 536 100 614 178 q 349 22 458 22 q 161 100 239 22 q 83 288 83 178 l 216 288 q 255 194 216 233 q 349 155 294 155 q 442 194 404 155 q 481 288 481 233 l 481 309 q 442 404 481 364 q 349 442 404 442 l 304 442 l 304 577 l 370 577 q 448 610 416 577 q 481 687 481 642 l 481 687 q 441 780 480 741 q 349 818 402 818 q 255 779 294 818 q 216 686 216 740 l 83 686 q 161 873 83 795 q 349 951 239 951 z "},"4":{"ha":692,"x_min":61,"x_max":631,"o":"m 326 972 l 61 265 l 454 265 l 454 0 l 631 0 l 631 575 l 454 575 l 454 442 l 316 442 l 515 972 l 326 972 m 342 951 l 484 951 l 296 450 l 284 420 l 476 420 l 476 553 l 609 553 l 609 22 l 476 22 l 476 288 l 93 288 l 342 951 z "},"5":{"ha":697,"x_min":61,"x_max":636,"o":"m 591 972 l 159 972 l 94 420 l 349 420 q 427 388 394 420 q 459 309 459 355 l 459 288 q 427 210 459 241 q 349 177 394 177 q 271 210 302 177 q 238 288 238 241 l 238 309 l 61 309 l 61 288 q 145 84 61 169 q 349 0 230 0 q 551 84 467 0 q 636 288 636 169 l 636 309 q 551 513 636 429 q 349 597 467 597 l 293 597 l 317 796 l 591 796 l 591 972 m 570 951 l 570 818 l 297 818 l 294 798 l 271 600 l 269 575 l 349 575 q 536 497 458 575 q 614 309 614 419 l 614 288 q 536 100 614 178 q 349 22 458 22 q 161 100 239 22 q 83 288 83 178 l 216 288 q 255 194 216 233 q 349 155 294 155 q 442 194 404 155 q 481 288 481 233 l 481 309 q 442 404 481 364 q 349 442 404 442 l 119 442 l 179 951 l 570 951 z "},"6":{"ha":697,"x_min":61,"x_max":636,"o":"m 349 177 q 271 210 302 177 q 238 288 238 241 q 271 366 238 333 q 349 398 302 398 q 427 366 394 398 q 459 288 459 333 q 427 210 459 241 q 349 177 394 177 m 349 972 q 153 896 235 972 q 62 707 71 819 l 61 707 l 61 288 q 145 84 61 169 q 349 0 230 0 q 551 84 467 0 q 636 288 636 169 q 551 490 636 406 q 349 575 467 575 q 238 553 291 575 l 238 686 q 271 764 238 731 q 349 796 302 796 q 427 764 394 796 q 459 686 459 731 l 459 663 l 636 663 l 636 686 q 551 888 636 804 q 349 972 467 972 m 349 155 q 442 194 404 155 q 481 288 481 233 q 442 381 481 342 q 349 420 404 420 q 255 381 294 420 q 216 288 216 342 q 255 194 216 233 q 349 155 294 155 m 349 951 q 536 873 458 951 q 614 686 614 795 l 481 686 q 442 779 481 740 q 349 818 404 818 q 255 779 294 818 q 216 686 216 740 l 216 519 l 246 532 q 349 553 295 553 q 536 475 458 553 q 614 288 614 397 q 536 100 614 178 q 349 22 458 22 q 161 100 239 22 q 83 288 83 178 l 83 694 l 84 706 q 168 880 92 808 q 349 951 244 951 z "},"7":{"ha":731,"x_min":61,"x_max":670,"o":"m 61 972 l 61 796 l 425 796 l 159 0 l 346 0 l 670 972 l 61 972 m 83 951 l 640 951 l 330 22 l 190 22 l 446 789 l 455 818 l 83 818 l 83 951 z "},"8":{"ha":697,"x_min":61,"x_max":636,"o":"m 349 177 q 271 210 302 177 q 238 288 238 241 q 271 366 238 333 q 349 398 302 398 q 427 366 394 398 q 459 288 459 333 q 427 210 459 241 q 349 177 394 177 m 349 575 q 271 607 302 575 q 238 686 238 640 q 271 764 238 731 q 349 796 302 796 q 427 764 394 796 q 459 686 459 731 q 427 607 459 640 q 349 575 394 575 m 349 972 q 145 888 230 972 q 61 686 61 804 l 61 663 l 62 663 q 141 486 70 561 q 62 309 70 412 l 61 309 l 61 288 q 145 84 61 169 q 349 0 230 0 q 551 84 467 0 q 636 288 636 169 l 636 309 l 635 309 q 555 486 627 412 q 635 663 627 561 l 636 663 l 636 686 q 551 888 636 804 q 349 972 467 972 m 349 155 q 442 194 404 155 q 481 288 481 233 q 442 381 481 342 q 349 420 404 420 q 255 381 294 420 q 216 288 216 342 q 255 194 216 233 q 349 155 294 155 m 349 553 q 442 591 404 553 q 481 686 481 631 q 442 779 481 740 q 349 818 404 818 q 255 779 294 818 q 216 686 216 740 q 255 591 216 631 q 349 553 294 553 m 349 951 q 536 873 458 951 q 614 686 614 795 l 614 676 l 613 665 q 540 502 606 570 l 525 486 l 540 471 q 613 308 606 402 l 614 296 l 614 288 q 536 100 614 178 q 349 22 458 22 q 161 100 239 22 q 83 288 83 178 l 83 296 l 84 308 q 157 471 92 402 l 172 486 l 157 502 q 84 665 92 570 l 83 676 l 83 686 q 161 873 83 795 q 349 951 239 951 z "},"9":{"ha":697,"x_min":61,"x_max":636,"o":"m 349 575 q 271 607 302 575 q 238 686 238 640 q 271 764 238 731 q 349 796 302 796 q 427 764 394 796 q 459 686 459 731 q 427 607 459 640 q 349 575 394 575 m 349 972 q 145 888 230 972 q 61 686 61 804 q 145 482 61 566 q 349 398 230 398 q 459 420 406 398 l 459 0 l 636 0 l 636 686 q 551 888 636 804 q 349 972 467 972 m 349 553 q 442 591 404 553 q 481 686 481 631 q 442 779 481 740 q 349 818 404 818 q 255 779 294 818 q 216 686 216 740 q 255 591 216 631 q 349 553 294 553 m 349 951 q 536 873 458 951 q 614 686 614 795 l 614 22 l 481 22 l 481 453 l 450 440 q 349 420 401 420 q 161 498 239 420 q 83 686 83 576 q 161 873 83 795 q 349 951 239 951 z "},"\u0000":{"ha":0,"x_min":0,"x_max":0,"o":""},"\u001d":{"ha":0,"x_min":0,"x_max":0,"o":""}," ":{"ha":345,"x_min":0,"x_max":0,"o":""}," ":{"ha":345,"x_min":0,"x_max":0,"o":""},"!":{"ha":299,"x_min":61,"x_max":238,"o":"m 61 265 l 238 265 l 238 972 l 61 972 l 61 265 m 83 951 l 216 951 l 216 288 l 83 288 l 83 951 m 61 0 l 238 0 l 238 177 l 61 177 l 61 0 m 83 155 l 216 155 l 216 22 l 83 22 l 83 155 z "},"\"":{"ha":343,"x_min":61,"x_max":282,"o":"m 61 793 l 149 793 l 149 970 l 61 970 l 61 793 m 83 948 l 127 948 l 127 816 l 83 816 l 83 948 m 194 793 l 282 793 l 282 970 l 194 970 l 194 793 m 216 948 l 260 948 l 260 816 l 216 816 l 216 948 z "},"#":{"ha":962,"x_min":61,"x_max":901,"o":"m 652 972 l 579 707 l 479 707 l 551 972 l 368 972 l 295 707 l 99 707 l 99 530 l 247 530 l 222 442 l 61 442 l 61 265 l 174 265 l 102 0 l 285 0 l 357 265 l 458 265 l 385 0 l 569 0 l 642 265 l 863 265 l 863 442 l 690 442 l 714 530 l 901 530 l 901 707 l 762 707 l 836 972 l 652 972 m 596 686 l 601 702 l 669 951 l 806 951 l 741 713 l 734 686 l 879 686 l 879 553 l 697 553 l 693 536 l 669 448 l 661 420 l 841 420 l 841 288 l 625 288 l 621 271 l 552 22 l 414 22 l 479 260 l 487 288 l 340 288 l 336 271 l 268 22 l 130 22 l 195 260 l 203 288 l 83 288 l 83 420 l 239 420 l 244 436 l 268 525 l 276 553 l 121 553 l 121 686 l 312 686 l 317 702 l 385 951 l 522 951 l 457 713 l 450 686 l 596 686 m 413 553 l 409 536 l 385 448 l 377 420 l 524 420 l 528 436 l 552 525 l 559 553 l 413 553 m 430 530 l 531 530 l 507 442 l 406 442 l 430 530 z "},"$":{"ha":652,"x_min":61,"x_max":591,"o":"m 370 972 l 282 972 l 282 925 q 125 836 187 909 q 61 663 61 761 q 139 475 61 553 q 326 398 216 398 q 389 372 363 398 q 415 309 415 346 q 389 247 415 273 q 326 221 363 221 q 264 247 290 221 q 238 309 238 273 l 238 329 l 61 329 l 61 309 q 125 138 61 212 q 282 48 187 64 l 282 0 l 370 0 l 370 48 q 528 138 465 64 q 591 309 591 212 q 514 497 591 419 q 326 575 436 575 q 264 601 290 575 q 238 663 238 627 q 264 726 238 700 q 326 751 290 751 q 389 726 363 751 q 415 663 415 700 l 415 644 l 591 644 l 591 663 q 528 836 591 761 q 370 925 465 909 l 370 972 m 349 951 l 349 906 l 367 903 q 511 821 454 888 q 570 666 568 754 l 437 666 q 404 742 436 711 q 326 774 372 774 q 248 741 281 774 q 216 663 216 709 q 248 585 216 618 q 326 553 281 553 q 498 481 427 553 q 570 309 570 410 q 511 152 570 220 q 367 70 454 84 l 349 66 l 349 22 l 304 22 l 304 66 l 286 70 q 141 152 199 84 q 83 307 84 219 l 216 307 q 249 231 217 262 q 326 199 281 199 q 404 231 372 199 q 437 309 437 264 q 404 388 437 355 q 326 420 372 420 q 155 492 226 420 q 83 663 83 563 q 141 821 83 753 q 286 903 199 888 l 304 906 l 304 951 l 349 951 z "},"%":{"ha":785,"x_min":61,"x_max":724,"o":"m 61 486 l 238 486 l 238 663 l 61 663 l 61 486 m 83 641 l 216 641 l 216 509 l 83 509 l 83 641 m 547 309 l 724 309 l 724 486 l 547 486 l 547 309 m 570 465 l 702 465 l 702 332 l 570 332 l 570 465 m 437 972 l 171 0 l 355 0 l 621 972 l 437 972 m 454 951 l 592 951 l 338 22 l 200 22 l 454 951 z "},"&":{"ha":741,"x_min":61,"x_max":680,"o":"m 349 177 q 271 210 302 177 q 238 288 238 241 q 271 366 238 333 q 349 398 302 398 l 415 398 l 415 177 l 349 177 m 503 972 l 349 972 q 145 888 230 972 q 61 686 61 804 l 61 663 l 62 663 q 141 486 70 561 q 62 309 70 412 l 61 309 l 61 288 q 145 84 61 169 q 349 0 230 0 l 591 0 l 591 398 l 680 398 l 680 575 l 591 575 l 591 663 l 415 663 l 415 575 l 349 575 q 271 607 302 575 q 238 686 238 640 q 271 764 238 731 q 349 796 302 796 l 503 796 l 503 972 m 437 155 l 437 420 l 349 420 q 255 381 294 420 q 216 288 216 342 q 255 194 216 233 q 349 155 294 155 l 437 155 m 481 951 l 481 818 l 349 818 q 255 779 294 818 q 216 686 216 740 q 255 591 216 631 q 349 553 294 553 l 437 553 l 437 641 l 570 641 l 570 553 l 658 553 l 658 420 l 570 420 l 570 22 l 349 22 q 161 100 239 22 q 83 288 83 178 l 83 296 l 84 308 q 157 471 92 402 l 172 486 l 157 502 q 84 665 92 570 l 83 676 l 83 686 q 161 873 83 795 q 349 951 239 951 l 481 951 z "},"'":{"ha":210,"x_min":61,"x_max":149,"o":"m 61 793 l 149 793 l 149 970 l 61 970 l 61 793 m 83 948 l 127 948 l 127 816 l 83 816 l 83 948 z "},"(":{"ha":410,"x_min":61,"x_max":349,"o":"m 349 1188 q 145 1104 230 1188 q 61 901 61 1020 l 61 61 q 145 -142 61 -58 q 349 -227 230 -227 l 349 -50 q 271 -17 302 -50 q 238 61 238 15 l 238 901 q 271 979 238 947 q 349 1011 302 1011 l 349 1188 m 326 1031 q 248 987 279 1024 q 216 901 216 950 l 216 61 q 248 -25 216 12 q 326 -70 279 -62 l 326 -203 q 154 -119 224 -195 q 83 61 83 -43 l 83 901 q 154 1081 83 1004 q 326 1165 224 1157 l 326 1031 z "},")":{"ha":410,"x_min":61,"x_max":349,"o":"m 61 1010 q 139 979 106 1010 q 172 901 172 946 l 172 60 q 139 -18 172 14 q 61 -50 106 -50 l 61 -227 q 264 -143 180 -227 q 349 60 349 -58 l 349 901 q 264 1103 349 1019 q 61 1187 180 1187 l 61 1010 m 83 1164 q 256 1080 186 1156 q 326 901 326 1004 l 326 60 q 256 -120 326 -43 q 83 -204 186 -196 l 83 -71 q 162 -26 130 -62 q 194 60 194 12 l 194 901 q 162 986 194 949 q 83 1031 130 1023 l 83 1164 z "},"*":{"ha":430,"x_min":61,"x_max":369,"o":"m 171 969 l 171 896 l 109 936 l 61 862 l 134 814 l 61 768 l 109 693 l 171 733 l 171 660 l 259 660 l 259 733 l 321 693 l 369 768 l 296 814 l 369 862 l 321 936 l 259 896 l 259 969 l 171 969 m 193 947 l 237 947 l 237 855 l 271 878 l 314 905 l 338 868 l 284 833 l 256 814 l 284 796 l 338 761 l 314 724 l 271 751 l 237 774 l 237 682 l 193 682 l 193 774 l 159 751 l 116 724 l 92 761 l 146 796 l 174 814 l 146 833 l 92 868 l 116 905 l 159 878 l 193 855 l 193 947 z "},"+":{"ha":652,"x_min":61,"x_max":591,"o":"m 238 750 l 238 574 l 61 574 l 61 397 l 238 397 l 238 220 l 415 220 l 415 397 l 591 397 l 591 574 l 415 574 l 415 750 l 238 750 m 83 551 l 260 551 l 260 728 l 393 728 l 393 551 l 570 551 l 570 418 l 393 418 l 393 242 l 260 242 l 260 418 l 83 418 l 83 551 z "},",":{"ha":343,"x_min":61,"x_max":282,"o":"m 105 176 l 61 -134 l 194 -134 l 282 176 l 105 176 m 124 154 l 253 154 l 177 -111 l 87 -111 l 124 154 z "},"-":{"ha":652,"x_min":61,"x_max":591,"o":"m 61 395 l 591 395 l 591 572 l 61 572 l 61 395 m 83 550 l 570 550 l 570 418 l 83 418 l 83 550 z "},"­":{"ha":652,"x_min":61,"x_max":591,"o":"m 61 395 l 591 395 l 591 572 l 61 572 l 61 395 m 83 550 l 570 550 l 570 418 l 83 418 l 83 550 z "},".":{"ha":299,"x_min":61,"x_max":238,"o":"m 61 0 l 238 0 l 238 177 l 61 177 l 61 0 m 83 155 l 216 155 l 216 22 l 83 22 l 83 155 z "},"/":{"ha":572,"x_min":61,"x_max":511,"o":"m 328 972 l 61 0 l 244 0 l 511 972 l 328 972 m 345 951 l 481 951 l 228 22 l 90 22 l 345 951 z "},":":{"ha":299,"x_min":61,"x_max":238,"o":"m 61 0 l 238 0 l 238 177 l 61 177 l 61 0 m 83 155 l 216 155 l 216 22 l 83 22 l 83 155 m 61 265 l 238 265 l 238 442 l 61 442 l 61 265 m 83 420 l 216 420 l 216 288 l 83 288 l 83 420 z "},";":{"ha":343,"x_min":61,"x_max":282,"o":"m 105 264 l 282 264 l 282 441 l 105 441 l 105 264 m 127 419 l 260 419 l 260 286 l 127 286 l 127 419 m 105 176 l 61 -134 l 194 -134 l 282 176 l 105 176 m 124 154 l 253 154 l 177 -111 l 87 -111 l 124 154 z "},";":{"ha":343,"x_min":61,"x_max":282,"o":"m 105 264 l 282 264 l 282 441 l 105 441 l 105 264 m 127 419 l 260 419 l 260 286 l 127 286 l 127 419 m 105 176 l 61 -134 l 194 -134 l 282 176 l 105 176 m 124 154 l 253 154 l 177 -111 l 87 -111 l 124 154 z "},"<":{"ha":531,"x_min":61,"x_max":470,"o":"m 345 767 l 61 484 l 345 200 l 470 325 l 311 484 l 470 642 l 345 767 m 92 484 l 345 736 l 438 642 l 296 499 l 280 484 l 296 468 l 438 325 l 345 231 l 92 484 z "},"=":{"ha":652,"x_min":61,"x_max":591,"o":"m 61 531 l 591 531 l 591 708 l 61 708 l 61 531 m 83 686 l 570 686 l 570 553 l 83 553 l 83 686 m 61 266 l 591 266 l 591 443 l 61 443 l 61 266 m 83 420 l 570 420 l 570 288 l 83 288 l 83 420 z "},">":{"ha":531,"x_min":61,"x_max":470,"o":"m 186 769 l 61 644 l 220 486 l 61 327 l 186 202 l 470 486 l 186 769 m 92 327 l 235 470 l 251 486 l 235 501 l 92 644 l 186 738 l 438 486 l 186 233 l 92 327 z "},"?":{"ha":697,"x_min":61,"x_max":636,"o":"m 349 972 q 145 888 230 972 q 61 686 61 804 l 61 663 l 238 663 l 238 686 q 271 764 238 731 q 349 796 302 796 q 427 764 394 796 q 459 686 459 731 q 427 607 459 640 q 349 575 394 575 l 260 575 l 260 265 l 437 265 l 437 412 q 580 515 524 440 q 636 686 636 591 q 551 888 636 804 q 349 972 467 972 m 349 951 q 536 873 458 951 q 614 686 614 795 q 562 528 614 598 q 430 433 511 459 l 415 428 l 415 288 l 282 288 l 282 553 l 349 553 q 442 591 404 553 q 481 686 481 631 q 442 779 481 740 q 349 818 404 818 q 255 779 294 818 q 216 686 216 740 l 83 686 q 161 873 83 795 q 349 951 239 951 m 437 177 l 260 177 l 260 0 l 437 0 l 437 177 m 415 22 l 282 22 l 282 155 l 415 155 l 415 22 z "},"@":{"ha":1095,"x_min":61,"x_max":1034,"o":"m 538 362 q 460 395 492 362 q 427 473 427 427 q 460 551 427 518 q 538 583 492 583 q 616 551 584 583 q 648 473 648 518 q 616 395 648 427 q 538 362 584 362 m 547 962 q 535 962 541 962 l 534 962 q 534 962 534 962 q 522 962 528 962 l 522 962 q 235 849 360 954 q 179 793 205 823 q 174 787 178 792 q 172 785 171 784 q 61 476 61 650 q 174 163 61 298 q 288 64 223 105 l 336 139 q 266 195 298 163 q 240 222 253 208 q 239 224 237 227 q 230 235 235 229 q 222 246 226 241 q 221 248 221 248 q 150 482 148 353 q 150 486 150 483 q 151 500 150 494 q 151 510 151 506 q 152 520 151 515 q 153 528 153 523 q 158 559 155 544 q 159 560 158 559 q 160 568 159 564 q 161 570 160 568 q 163 577 162 574 q 163 581 163 578 q 165 586 164 584 q 167 591 165 588 q 168 595 168 593 q 170 602 169 598 q 170 603 170 602 q 171 604 170 604 q 174 612 172 608 q 174 612 174 613 q 349 821 224 748 l 349 821 q 355 824 351 822 q 360 827 359 826 q 361 827 361 827 q 548 873 449 873 l 553 873 q 559 873 555 873 q 572 873 566 873 q 583 872 578 873 q 591 871 587 871 q 602 870 596 871 q 612 869 607 869 l 612 868 q 612 868 612 868 q 631 865 622 867 q 631 865 631 865 l 631 865 q 640 863 635 864 q 642 863 640 863 q 648 861 646 861 q 652 860 650 861 q 658 858 656 859 q 663 857 660 858 q 667 855 665 856 q 673 853 669 854 q 675 852 675 852 q 684 850 680 851 q 684 850 684 850 q 684 849 684 850 q 892 674 820 800 q 893 673 892 673 q 895 669 893 672 q 899 663 898 664 q 945 470 947 572 q 945 464 945 468 q 945 451 945 457 q 944 440 944 445 q 943 431 943 437 q 941 421 942 427 q 940 412 941 416 q 940 411 940 412 q 940 410 940 410 q 937 393 939 401 l 937 392 q 935 384 936 388 q 935 382 935 383 q 934 382 934 382 q 932 374 933 378 q 931 371 932 374 q 930 366 930 368 q 928 361 929 364 q 927 357 928 357 q 925 350 926 354 q 924 347 924 348 q 922 340 923 344 q 921 338 920 338 q 918 330 920 334 q 825 191 886 251 l 825 476 q 741 676 824 593 q 538 760 657 760 q 335 676 419 760 q 251 473 251 592 q 335 269 251 353 q 538 185 419 185 q 648 208 595 185 l 648 0 q 891 132 789 30 l 891 132 q 1033 449 1023 263 q 1033 451 1034 452 q 1034 459 1034 453 q 1034 463 1034 465 q 1034 468 1034 462 l 1034 484 q 1034 488 1034 490 q 1034 492 1034 486 q 1033 500 1034 498 q 1033 503 1034 499 q 920 788 1024 664 q 865 844 895 819 q 858 850 863 846 q 857 851 856 852 q 573 962 733 954 l 572 962 q 562 962 568 962 q 559 962 564 962 q 547 962 553 962 m 538 340 q 632 379 593 340 q 671 473 671 418 q 632 566 671 528 q 538 605 593 605 q 444 566 483 605 q 406 473 406 528 q 444 379 406 418 q 538 340 483 340 m 547 940 q 559 940 553 940 l 561 940 q 571 939 567 940 l 572 939 q 842 834 725 932 l 843 834 l 844 833 q 850 827 848 829 q 903 774 879 803 q 1011 502 1002 656 l 1011 499 q 1011 493 1011 498 l 1011 492 l 1011 490 l 1012 481 q 1012 476 1012 477 q 1012 470 1012 474 l 1011 462 l 1011 460 l 1011 458 q 1011 452 1011 454 l 1011 450 q 886 158 1002 281 l 876 148 q 671 28 789 60 l 671 241 l 640 228 q 538 208 591 208 q 351 285 428 208 q 273 473 273 363 q 351 661 273 583 q 538 738 428 738 q 726 661 648 738 q 803 475 802 584 l 804 139 l 841 176 q 938 321 905 238 l 938 321 l 939 322 l 939 322 l 939 322 l 939 323 q 942 331 940 327 l 942 332 l 942 332 q 945 340 944 336 l 945 342 l 946 343 q 948 350 947 347 q 949 354 949 351 l 949 354 q 951 359 951 358 q 953 366 951 361 l 953 366 q 954 369 954 368 q 956 376 954 372 l 956 377 l 956 378 q 958 387 957 383 l 958 388 q 962 406 960 397 l 962 407 l 962 408 q 964 418 963 413 q 965 429 964 424 q 966 438 965 434 q 966 450 966 444 q 967 463 967 456 q 967 469 967 468 q 918 672 968 577 l 918 673 q 916 678 918 675 l 915 679 l 914 680 q 912 684 913 683 l 911 685 l 911 686 q 692 870 835 818 l 691 870 l 691 871 q 683 873 687 872 l 681 874 l 680 874 q 673 876 676 876 q 670 878 672 877 l 669 878 q 664 880 666 879 q 658 881 661 880 l 658 881 q 654 882 656 882 q 647 884 651 883 l 646 884 l 645 884 q 636 886 640 886 l 635 886 l 635 886 q 616 890 626 888 l 616 890 l 615 890 q 604 892 610 891 q 594 893 600 892 q 585 894 589 894 q 574 895 579 895 q 560 895 567 895 l 559 895 q 553 896 555 896 l 548 896 q 351 847 444 896 l 351 846 l 350 846 q 346 844 349 846 l 345 844 l 344 843 q 338 840 340 841 l 338 840 q 153 620 205 764 l 153 620 q 150 611 151 616 l 149 610 l 149 609 q 146 602 148 605 q 146 599 146 601 l 146 598 q 144 592 144 594 q 142 587 143 590 l 142 586 q 141 583 142 584 q 140 576 140 579 l 139 575 q 139 573 139 574 q 137 564 138 569 l 137 564 l 136 563 q 131 531 133 547 q 130 523 130 526 q 129 512 130 517 q 128 502 129 507 q 127 487 127 495 l 127 486 q 127 482 127 484 q 203 236 125 347 l 204 233 q 212 222 208 228 q 222 210 218 215 l 222 209 l 223 209 q 235 195 229 201 l 235 194 l 250 179 q 305 132 276 153 l 282 95 q 191 178 231 130 q 83 476 83 307 q 189 771 83 643 q 190 772 189 771 l 191 774 l 192 774 q 196 779 195 777 q 250 832 220 808 q 524 939 368 932 l 524 939 q 534 940 528 940 l 536 940 q 547 940 541 940 l 547 940 z "},"A":{"ha":769,"x_min":61,"x_max":708,"o":"m 293 972 l 61 0 l 243 0 l 275 133 l 495 133 l 526 0 l 708 0 l 477 972 l 293 972 m 310 951 l 459 951 l 680 22 l 544 22 l 516 138 l 512 155 l 257 155 l 253 138 l 225 22 l 89 22 l 310 951 m 363 600 l 295 315 l 288 288 l 481 288 l 474 315 l 406 600 l 385 691 l 363 600 m 385 595 l 452 309 l 317 309 l 385 595 z "},"B":{"ha":708,"x_min":61,"x_max":647,"o":"m 238 177 l 238 420 l 359 420 q 437 388 405 420 q 470 309 470 355 l 470 288 q 437 210 470 241 q 359 177 405 177 l 238 177 m 238 600 l 238 796 l 359 796 q 422 770 396 796 q 448 707 448 744 l 448 688 q 422 625 448 651 q 359 600 396 600 l 238 600 m 61 972 l 61 0 l 359 0 q 563 84 478 0 q 647 288 647 169 l 647 309 q 560 515 647 430 q 625 688 625 589 l 625 707 q 547 895 625 817 q 359 972 469 972 l 61 972 m 216 155 l 359 155 q 453 194 414 155 q 492 288 492 233 l 492 309 q 453 404 492 364 q 359 442 414 442 l 216 442 l 216 155 m 216 577 l 359 577 q 437 610 405 577 q 470 688 470 642 l 470 707 q 437 785 470 753 q 359 818 405 818 l 216 818 l 216 577 m 359 951 q 532 880 460 951 q 603 707 603 808 l 603 688 q 544 529 603 597 l 530 513 l 545 499 q 625 309 625 420 l 625 288 q 547 100 625 178 q 359 22 469 22 l 83 22 l 83 951 l 359 951 z "},"C":{"ha":697,"x_min":61,"x_max":636,"o":"m 349 972 q 145 888 230 972 q 61 686 61 804 l 61 288 q 145 84 61 169 q 349 0 230 0 q 551 84 467 0 q 636 288 636 169 l 636 309 l 459 309 l 459 288 q 427 210 459 241 q 349 177 394 177 q 271 210 302 177 q 238 288 238 241 l 238 686 q 271 764 238 731 q 349 796 302 796 q 427 764 394 796 q 459 686 459 731 l 459 663 l 636 663 l 636 686 q 551 888 636 804 q 349 972 467 972 m 349 951 q 536 873 458 951 q 614 686 614 795 l 481 686 q 442 779 481 740 q 349 818 404 818 q 255 779 294 818 q 216 686 216 740 l 216 288 q 255 194 216 233 q 349 155 294 155 q 442 194 404 155 q 481 288 481 233 l 614 288 q 536 100 614 178 q 349 22 458 22 q 161 100 239 22 q 83 288 83 178 l 83 686 q 161 873 83 795 q 349 951 239 951 z "},"D":{"ha":697,"x_min":61,"x_max":636,"o":"m 238 177 l 238 796 l 349 796 q 427 764 394 796 q 459 686 459 731 l 459 288 q 427 210 459 241 q 349 177 394 177 l 238 177 m 61 972 l 61 0 l 349 0 q 551 84 467 0 q 636 288 636 169 l 636 686 q 551 888 636 804 q 349 972 467 972 l 61 972 m 216 155 l 349 155 q 442 194 404 155 q 481 288 481 233 l 481 686 q 442 779 481 740 q 349 818 404 818 l 216 818 l 216 155 m 349 951 q 536 873 458 951 q 614 686 614 795 l 614 288 q 536 100 614 178 q 349 22 458 22 l 83 22 l 83 951 l 349 951 z "},"E":{"ha":697,"x_min":61,"x_max":636,"o":"m 61 972 l 61 0 l 636 0 l 636 177 l 238 177 l 238 398 l 547 398 l 547 575 l 238 575 l 238 796 l 636 796 l 636 972 l 61 972 m 83 951 l 614 951 l 614 818 l 216 818 l 216 553 l 526 553 l 526 420 l 216 420 l 216 155 l 614 155 l 614 22 l 83 22 l 83 951 z "},"F":{"ha":697,"x_min":61,"x_max":636,"o":"m 61 972 l 61 0 l 238 0 l 238 398 l 547 398 l 547 575 l 238 575 l 238 796 l 636 796 l 636 972 l 61 972 m 83 951 l 614 951 l 614 818 l 216 818 l 216 553 l 526 553 l 526 420 l 216 420 l 216 22 l 83 22 l 83 951 z "},"G":{"ha":697,"x_min":61,"x_max":636,"o":"m 349 972 q 145 888 230 972 q 61 686 61 804 l 61 288 q 145 84 61 169 q 349 0 230 0 l 636 0 l 636 575 l 370 575 l 370 398 l 459 398 l 459 177 l 349 177 q 271 210 302 177 q 238 288 238 241 l 238 686 q 271 764 238 731 q 349 796 302 796 q 427 764 394 796 q 459 686 459 731 l 459 663 l 636 663 l 636 686 q 551 888 636 804 q 349 972 467 972 m 349 951 q 536 873 458 951 q 614 686 614 795 l 481 686 q 442 779 481 740 q 349 818 404 818 q 255 779 294 818 q 216 686 216 740 l 216 288 q 255 194 216 233 q 349 155 294 155 l 481 155 l 481 420 l 393 420 l 393 553 l 614 553 l 614 22 l 349 22 q 161 100 239 22 q 83 288 83 178 l 83 686 q 161 873 83 795 q 349 951 239 951 z "},"H":{"ha":697,"x_min":61,"x_max":636,"o":"m 459 972 l 459 575 l 238 575 l 238 972 l 61 972 l 61 0 l 238 0 l 238 398 l 459 398 l 459 0 l 636 0 l 636 972 l 459 972 m 481 553 l 481 951 l 614 951 l 614 22 l 481 22 l 481 420 l 216 420 l 216 22 l 83 22 l 83 951 l 216 951 l 216 553 l 481 553 z "},"I":{"ha":299,"x_min":61,"x_max":238,"o":"m 61 0 l 238 0 l 238 972 l 61 972 l 61 0 m 83 951 l 216 951 l 216 22 l 83 22 l 83 951 z "},"J":{"ha":476,"x_min":61,"x_max":415,"o":"m 415 972 l 238 972 l 238 288 q 205 210 238 241 q 127 177 173 177 l 61 177 l 61 0 l 127 0 q 330 84 246 0 q 415 288 415 169 l 415 972 m 393 951 l 393 288 q 315 100 393 178 q 127 22 237 22 l 83 22 l 83 155 l 127 155 q 221 194 182 155 q 260 288 260 233 l 260 951 l 393 951 z "},"K":{"ha":745,"x_min":61,"x_max":684,"o":"m 473 972 l 238 609 l 238 972 l 61 972 l 61 0 l 238 0 l 238 283 l 298 377 l 475 0 l 671 0 l 412 552 l 684 972 l 473 972 m 256 597 l 486 951 l 644 951 l 393 564 l 387 553 l 391 543 l 636 22 l 490 22 l 318 387 l 301 422 l 280 389 l 219 296 l 216 290 l 216 22 l 83 22 l 83 951 l 216 951 l 216 534 l 256 597 z "},"L":{"ha":652,"x_min":61,"x_max":591,"o":"m 61 972 l 61 0 l 591 0 l 591 177 l 238 177 l 238 972 l 61 972 m 83 951 l 216 951 l 216 155 l 570 155 l 570 22 l 83 22 l 83 951 z "},"M":{"ha":918,"x_min":61,"x_max":857,"o":"m 669 972 l 459 551 l 248 972 l 61 972 l 61 0 l 238 0 l 238 598 l 459 156 l 680 598 l 680 0 l 857 0 l 857 972 l 669 972 m 479 542 l 684 951 l 835 951 l 835 22 l 702 22 l 702 692 l 661 608 l 459 205 l 258 608 l 216 692 l 216 22 l 83 22 l 83 951 l 235 951 l 439 542 l 459 502 l 479 542 z "},"N":{"ha":697,"x_min":61,"x_max":636,"o":"m 459 972 l 459 450 l 245 972 l 61 972 l 61 0 l 238 0 l 238 523 l 452 0 l 636 0 l 636 972 l 459 972 m 481 951 l 614 951 l 614 22 l 467 22 l 258 532 l 216 635 l 216 22 l 83 22 l 83 951 l 230 951 l 439 441 l 481 337 l 481 951 z "},"O":{"ha":697,"x_min":61,"x_max":636,"o":"m 349 177 q 271 210 302 177 q 238 288 238 241 l 238 686 q 271 764 238 731 q 349 796 302 796 q 427 764 394 796 q 459 686 459 731 l 459 288 q 427 210 459 241 q 349 177 394 177 m 349 972 q 145 888 230 972 q 61 686 61 804 l 61 288 q 145 84 61 169 q 349 0 230 0 q 551 84 467 0 q 636 288 636 169 l 636 686 q 551 888 636 804 q 349 972 467 972 m 349 155 q 442 194 404 155 q 481 288 481 233 l 481 686 q 442 779 481 740 q 349 818 404 818 q 255 779 294 818 q 216 686 216 740 l 216 288 q 255 194 216 233 q 349 155 294 155 m 349 951 q 536 873 458 951 q 614 686 614 795 l 614 288 q 536 100 614 178 q 349 22 458 22 q 161 100 239 22 q 83 288 83 178 l 83 686 q 161 873 83 795 q 349 951 239 951 z "},"P":{"ha":708,"x_min":61,"x_max":647,"o":"m 238 553 l 238 796 l 359 796 q 437 764 405 796 q 470 686 470 731 l 470 663 q 437 585 470 618 q 359 553 405 553 l 238 553 m 61 972 l 61 0 l 238 0 l 238 376 l 359 376 q 563 460 478 376 q 647 663 647 545 l 647 686 q 563 888 647 804 q 359 972 478 972 l 61 972 m 216 530 l 359 530 q 453 570 414 530 q 492 663 492 608 l 492 686 q 453 779 492 740 q 359 818 414 818 l 216 818 l 216 530 m 359 951 q 547 873 469 951 q 625 686 625 795 l 625 663 q 547 475 625 553 q 359 398 469 398 l 216 398 l 216 22 l 83 22 l 83 951 l 359 951 z "},"Q":{"ha":697,"x_min":61,"x_max":636,"o":"m 349 177 q 271 210 302 177 q 238 288 238 242 l 238 686 q 271 764 238 732 q 349 796 302 796 q 427 764 394 796 q 459 686 459 732 l 459 288 q 427 210 459 242 q 349 177 394 177 m 349 973 q 145 889 230 973 q 61 686 61 804 l 61 288 q 145 85 61 169 q 349 1 230 1 q 389 3 368 1 l 421 -77 l 585 -11 l 548 81 q 636 288 636 166 l 636 686 q 551 889 636 804 q 349 973 467 973 m 349 155 q 442 194 404 155 q 481 288 481 233 l 481 686 q 442 779 481 741 q 349 819 404 819 q 255 779 294 819 q 216 686 216 741 l 216 288 q 255 194 216 233 q 349 155 294 155 m 349 951 q 536 873 458 951 q 614 686 614 795 l 614 288 q 533 98 614 176 l 522 87 l 528 73 l 557 1 l 433 -48 l 410 12 l 403 28 l 386 25 q 349 22 367 22 q 161 100 239 22 q 83 288 83 178 l 83 686 q 161 873 83 795 q 349 951 239 951 z "},"R":{"ha":749,"x_min":61,"x_max":688,"o":"m 238 553 l 238 796 l 359 796 q 437 764 405 796 q 470 686 470 731 l 470 663 q 437 585 470 618 q 359 553 405 553 l 238 553 m 61 972 l 61 0 l 238 0 l 238 376 l 315 376 l 492 0 l 688 0 l 494 410 q 605 513 564 447 q 647 663 647 583 l 647 686 q 563 888 647 804 q 359 972 478 972 l 61 972 m 216 530 l 359 530 q 453 570 414 530 q 492 663 492 608 l 492 686 q 453 779 492 740 q 359 818 414 818 l 216 818 l 216 530 m 359 951 q 547 873 469 951 q 625 686 625 795 l 625 663 q 587 527 625 590 q 484 429 549 464 l 466 419 l 475 400 l 652 22 l 506 22 l 335 385 l 329 398 l 216 398 l 216 22 l 83 22 l 83 951 l 359 951 z "},"S":{"ha":697,"x_min":61,"x_max":636,"o":"m 349 972 q 145 888 230 972 q 61 686 61 804 q 145 482 61 566 q 349 398 230 398 q 427 366 394 398 q 459 288 459 333 q 427 210 459 241 q 349 177 394 177 q 271 210 302 177 q 238 288 238 241 l 238 309 l 61 309 l 61 288 q 145 84 61 169 q 349 0 230 0 q 551 84 467 0 q 636 288 636 169 q 551 490 636 406 q 349 575 467 575 q 271 607 302 575 q 238 686 238 640 q 271 764 238 731 q 349 796 302 796 q 427 764 394 796 q 459 686 459 731 l 459 663 l 636 663 l 636 686 q 551 888 636 804 q 349 972 467 972 m 349 951 q 536 873 458 951 q 614 686 614 795 l 481 686 q 442 779 481 740 q 349 818 404 818 q 255 779 294 818 q 216 686 216 740 q 255 591 216 631 q 349 553 294 553 q 536 475 458 553 q 614 288 614 397 q 536 100 614 178 q 349 22 458 22 q 161 100 239 22 q 83 288 83 178 l 216 288 q 255 194 216 233 q 349 155 294 155 q 442 194 404 155 q 481 288 481 233 q 442 381 481 342 q 349 420 404 420 q 161 498 239 420 q 83 686 83 576 q 161 873 83 795 q 349 951 239 951 z "},"T":{"ha":697,"x_min":61,"x_max":636,"o":"m 61 972 l 61 796 l 260 796 l 260 0 l 437 0 l 437 796 l 636 796 l 636 972 l 61 972 m 83 951 l 614 951 l 614 818 l 415 818 l 415 22 l 282 22 l 282 818 l 83 818 l 83 951 z "},"U":{"ha":697,"x_min":61,"x_max":636,"o":"m 636 972 l 459 972 l 459 288 q 427 210 459 241 q 349 177 394 177 q 271 210 302 177 q 238 288 238 241 l 238 972 l 61 972 l 61 288 q 145 84 61 169 q 349 0 230 0 q 551 84 467 0 q 636 288 636 169 l 636 972 m 614 951 l 614 288 q 536 100 614 178 q 349 22 458 22 q 161 100 239 22 q 83 288 83 178 l 83 951 l 216 951 l 216 288 q 255 194 216 233 q 349 155 294 155 q 442 194 404 155 q 481 288 481 233 l 481 951 l 614 951 z "},"V":{"ha":769,"x_min":61,"x_max":708,"o":"m 526 972 l 385 377 l 243 972 l 61 972 l 293 0 l 477 0 l 708 972 l 526 972 m 406 372 l 544 951 l 680 951 l 459 22 l 310 22 l 89 951 l 225 951 l 363 372 l 385 282 l 406 372 z "},"W":{"ha":1255,"x_min":61,"x_max":1194,"o":"m 1013 972 l 871 377 l 729 972 l 526 972 l 385 377 l 243 972 l 61 972 l 293 0 l 477 0 l 628 635 l 779 0 l 963 0 l 1194 972 l 1013 972 m 892 372 l 1030 951 l 1166 951 l 945 22 l 796 22 l 649 640 l 628 730 l 606 640 l 459 22 l 310 22 l 89 951 l 225 951 l 363 372 l 385 282 l 406 372 l 544 951 l 711 951 l 850 372 l 871 282 l 892 372 z "},"X":{"ha":766,"x_min":61,"x_max":705,"o":"m 510 972 l 383 697 l 256 972 l 61 972 l 286 486 l 61 0 l 256 0 l 383 275 l 510 0 l 705 0 l 480 486 l 705 972 l 510 972 m 403 688 l 524 951 l 670 951 l 460 496 l 456 486 l 460 477 l 670 22 l 524 22 l 403 285 l 383 328 l 363 285 l 241 22 l 96 22 l 306 477 l 310 486 l 306 496 l 96 951 l 241 951 l 363 688 l 383 645 l 403 688 z "},"Y":{"ha":818,"x_min":61,"x_max":757,"o":"m 566 972 l 409 588 l 252 972 l 61 972 l 321 336 l 321 0 l 497 0 l 497 336 l 757 972 l 566 972 m 429 580 l 581 951 l 724 951 l 477 345 l 475 340 l 475 22 l 342 22 l 342 340 l 341 345 l 94 951 l 237 951 l 389 580 l 409 530 l 429 580 z "},"Z":{"ha":748,"x_min":61,"x_max":687,"o":"m 109 972 l 109 796 l 415 796 l 61 0 l 640 0 l 640 177 l 333 177 l 687 972 l 109 972 m 131 951 l 653 951 l 313 186 l 299 155 l 617 155 l 617 22 l 95 22 l 435 787 l 449 818 l 131 818 l 131 951 z "},"^":{"ha":471,"x_min":61,"x_max":410,"o":"m 235 1055 l 61 855 l 144 783 l 235 886 l 326 783 l 410 855 l 235 1055 m 92 857 l 235 1021 l 378 857 l 328 814 l 252 901 l 235 920 l 218 901 l 142 814 l 92 857 z "},"_":{"ha":652,"x_min":61,"x_max":591,"o":"m 61 0 l 591 0 l 591 177 l 61 177 l 61 0 m 83 155 l 570 155 l 570 22 l 83 22 l 83 155 z "},"`":{"ha":307,"x_min":61,"x_max":245,"o":"m 61 1027 l 135 814 l 245 814 l 208 1027 l 61 1027 m 92 1006 l 190 1006 l 219 836 l 151 836 l 92 1006 z "},"a":{"ha":769,"x_min":61,"x_max":708,"o":"m 293 972 l 61 0 l 243 0 l 275 133 l 495 133 l 526 0 l 708 0 l 477 972 l 293 972 m 310 951 l 459 951 l 680 22 l 544 22 l 516 138 l 512 155 l 257 155 l 253 138 l 225 22 l 89 22 l 310 951 m 363 600 l 295 315 l 288 288 l 481 288 l 474 315 l 406 600 l 385 691 l 363 600 m 385 595 l 452 309 l 317 309 l 385 595 z "},"b":{"ha":708,"x_min":61,"x_max":647,"o":"m 238 177 l 238 420 l 359 420 q 437 388 405 420 q 470 309 470 355 l 470 288 q 437 210 470 241 q 359 177 405 177 l 238 177 m 238 600 l 238 796 l 359 796 q 422 770 396 796 q 448 707 448 744 l 448 688 q 422 625 448 651 q 359 600 396 600 l 238 600 m 61 972 l 61 0 l 359 0 q 563 84 478 0 q 647 288 647 169 l 647 309 q 560 515 647 430 q 625 688 625 589 l 625 707 q 547 895 625 817 q 359 972 469 972 l 61 972 m 216 155 l 359 155 q 453 194 414 155 q 492 288 492 233 l 492 309 q 453 404 492 364 q 359 442 414 442 l 216 442 l 216 155 m 216 577 l 359 577 q 437 610 405 577 q 470 688 470 642 l 470 707 q 437 785 470 753 q 359 818 405 818 l 216 818 l 216 577 m 359 951 q 532 880 460 951 q 603 707 603 808 l 603 688 q 544 529 603 597 l 530 513 l 545 499 q 625 309 625 420 l 625 288 q 547 100 625 178 q 359 22 469 22 l 83 22 l 83 951 l 359 951 z "},"c":{"ha":697,"x_min":61,"x_max":636,"o":"m 349 972 q 145 888 230 972 q 61 686 61 804 l 61 288 q 145 84 61 169 q 349 0 230 0 q 551 84 467 0 q 636 288 636 169 l 636 309 l 459 309 l 459 288 q 427 210 459 241 q 349 177 394 177 q 271 210 302 177 q 238 288 238 241 l 238 686 q 271 764 238 731 q 349 796 302 796 q 427 764 394 796 q 459 686 459 731 l 459 663 l 636 663 l 636 686 q 551 888 636 804 q 349 972 467 972 m 349 951 q 536 873 458 951 q 614 686 614 795 l 481 686 q 442 779 481 740 q 349 818 404 818 q 255 779 294 818 q 216 686 216 740 l 216 288 q 255 194 216 233 q 349 155 294 155 q 442 194 404 155 q 481 288 481 233 l 614 288 q 536 100 614 178 q 349 22 458 22 q 161 100 239 22 q 83 288 83 178 l 83 686 q 161 873 83 795 q 349 951 239 951 z "},"d":{"ha":697,"x_min":61,"x_max":636,"o":"m 238 177 l 238 796 l 349 796 q 427 764 394 796 q 459 686 459 731 l 459 288 q 427 210 459 241 q 349 177 394 177 l 238 177 m 61 972 l 61 0 l 349 0 q 551 84 467 0 q 636 288 636 169 l 636 686 q 551 888 636 804 q 349 972 467 972 l 61 972 m 216 155 l 349 155 q 442 194 404 155 q 481 288 481 233 l 481 686 q 442 779 481 740 q 349 818 404 818 l 216 818 l 216 155 m 349 951 q 536 873 458 951 q 614 686 614 795 l 614 288 q 536 100 614 178 q 349 22 458 22 l 83 22 l 83 951 l 349 951 z "},"e":{"ha":697,"x_min":61,"x_max":636,"o":"m 61 972 l 61 0 l 636 0 l 636 177 l 238 177 l 238 398 l 547 398 l 547 575 l 238 575 l 238 796 l 636 796 l 636 972 l 61 972 m 83 951 l 614 951 l 614 818 l 216 818 l 216 553 l 526 553 l 526 420 l 216 420 l 216 155 l 614 155 l 614 22 l 83 22 l 83 951 z "},"f":{"ha":697,"x_min":61,"x_max":636,"o":"m 61 972 l 61 0 l 238 0 l 238 398 l 547 398 l 547 575 l 238 575 l 238 796 l 636 796 l 636 972 l 61 972 m 83 951 l 614 951 l 614 818 l 216 818 l 216 553 l 526 553 l 526 420 l 216 420 l 216 22 l 83 22 l 83 951 z "},"g":{"ha":697,"x_min":61,"x_max":636,"o":"m 349 972 q 145 888 230 972 q 61 686 61 804 l 61 288 q 145 84 61 169 q 349 0 230 0 l 636 0 l 636 575 l 370 575 l 370 398 l 459 398 l 459 177 l 349 177 q 271 210 302 177 q 238 288 238 241 l 238 686 q 271 764 238 731 q 349 796 302 796 q 427 764 394 796 q 459 686 459 731 l 459 663 l 636 663 l 636 686 q 551 888 636 804 q 349 972 467 972 m 349 951 q 536 873 458 951 q 614 686 614 795 l 481 686 q 442 779 481 740 q 349 818 404 818 q 255 779 294 818 q 216 686 216 740 l 216 288 q 255 194 216 233 q 349 155 294 155 l 481 155 l 481 420 l 393 420 l 393 553 l 614 553 l 614 22 l 349 22 q 161 100 239 22 q 83 288 83 178 l 83 686 q 161 873 83 795 q 349 951 239 951 z "},"h":{"ha":697,"x_min":61,"x_max":636,"o":"m 459 972 l 459 575 l 238 575 l 238 972 l 61 972 l 61 0 l 238 0 l 238 398 l 459 398 l 459 0 l 636 0 l 636 972 l 459 972 m 481 553 l 481 951 l 614 951 l 614 22 l 481 22 l 481 420 l 216 420 l 216 22 l 83 22 l 83 951 l 216 951 l 216 553 l 481 553 z "},"i":{"ha":299,"x_min":61,"x_max":238,"o":"m 61 0 l 238 0 l 238 972 l 61 972 l 61 0 m 83 951 l 216 951 l 216 22 l 83 22 l 83 951 z "},"j":{"ha":476,"x_min":61,"x_max":415,"o":"m 415 972 l 238 972 l 238 288 q 205 210 238 241 q 127 177 173 177 l 61 177 l 61 0 l 127 0 q 330 84 246 0 q 415 288 415 169 l 415 972 m 393 951 l 393 288 q 315 100 393 178 q 127 22 237 22 l 83 22 l 83 155 l 127 155 q 221 194 182 155 q 260 288 260 233 l 260 951 l 393 951 z "},"k":{"ha":745,"x_min":61,"x_max":684,"o":"m 473 972 l 238 609 l 238 972 l 61 972 l 61 0 l 238 0 l 238 283 l 298 377 l 475 0 l 671 0 l 412 552 l 684 972 l 473 972 m 256 597 l 486 951 l 644 951 l 393 564 l 387 553 l 391 543 l 636 22 l 490 22 l 318 387 l 301 422 l 280 389 l 219 296 l 216 290 l 216 22 l 83 22 l 83 951 l 216 951 l 216 534 l 256 597 z "},"l":{"ha":652,"x_min":61,"x_max":591,"o":"m 61 972 l 61 0 l 591 0 l 591 177 l 238 177 l 238 972 l 61 972 m 83 951 l 216 951 l 216 155 l 570 155 l 570 22 l 83 22 l 83 951 z "},"m":{"ha":918,"x_min":61,"x_max":857,"o":"m 669 972 l 459 551 l 248 972 l 61 972 l 61 0 l 238 0 l 238 598 l 459 156 l 680 598 l 680 0 l 857 0 l 857 972 l 669 972 m 479 542 l 684 951 l 835 951 l 835 22 l 702 22 l 702 692 l 661 608 l 459 205 l 258 608 l 216 692 l 216 22 l 83 22 l 83 951 l 235 951 l 439 542 l 459 502 l 479 542 z "},"n":{"ha":697,"x_min":61,"x_max":636,"o":"m 459 972 l 459 450 l 245 972 l 61 972 l 61 0 l 238 0 l 238 523 l 452 0 l 636 0 l 636 972 l 459 972 m 481 951 l 614 951 l 614 22 l 467 22 l 258 532 l 216 635 l 216 22 l 83 22 l 83 951 l 230 951 l 439 441 l 481 337 l 481 951 z "},"o":{"ha":697,"x_min":61,"x_max":636,"o":"m 349 177 q 271 210 302 177 q 238 288 238 241 l 238 686 q 271 764 238 731 q 349 796 302 796 q 427 764 394 796 q 459 686 459 731 l 459 288 q 427 210 459 241 q 349 177 394 177 m 349 972 q 145 888 230 972 q 61 686 61 804 l 61 288 q 145 84 61 169 q 349 0 230 0 q 551 84 467 0 q 636 288 636 169 l 636 686 q 551 888 636 804 q 349 972 467 972 m 349 155 q 442 194 404 155 q 481 288 481 233 l 481 686 q 442 779 481 740 q 349 818 404 818 q 255 779 294 818 q 216 686 216 740 l 216 288 q 255 194 216 233 q 349 155 294 155 m 349 951 q 536 873 458 951 q 614 686 614 795 l 614 288 q 536 100 614 178 q 349 22 458 22 q 161 100 239 22 q 83 288 83 178 l 83 686 q 161 873 83 795 q 349 951 239 951 z "},"p":{"ha":708,"x_min":61,"x_max":647,"o":"m 238 553 l 238 796 l 359 796 q 437 764 405 796 q 470 686 470 731 l 470 663 q 437 585 470 618 q 359 553 405 553 l 238 553 m 61 972 l 61 0 l 238 0 l 238 376 l 359 376 q 563 460 478 376 q 647 663 647 545 l 647 686 q 563 888 647 804 q 359 972 478 972 l 61 972 m 216 530 l 359 530 q 453 570 414 530 q 492 663 492 608 l 492 686 q 453 779 492 740 q 359 818 414 818 l 216 818 l 216 530 m 359 951 q 547 873 469 951 q 625 686 625 795 l 625 663 q 547 475 625 553 q 359 398 469 398 l 216 398 l 216 22 l 83 22 l 83 951 l 359 951 z "},"q":{"ha":697,"x_min":61,"x_max":636,"o":"m 349 177 q 271 210 302 177 q 238 288 238 242 l 238 686 q 271 764 238 732 q 349 796 302 796 q 427 764 394 796 q 459 686 459 732 l 459 288 q 427 210 459 242 q 349 177 394 177 m 349 973 q 145 889 230 973 q 61 686 61 804 l 61 288 q 145 85 61 169 q 349 1 230 1 q 389 3 368 1 l 421 -77 l 585 -11 l 548 81 q 636 288 636 166 l 636 686 q 551 889 636 804 q 349 973 467 973 m 349 155 q 442 194 404 155 q 481 288 481 233 l 481 686 q 442 779 481 741 q 349 819 404 819 q 255 779 294 819 q 216 686 216 741 l 216 288 q 255 194 216 233 q 349 155 294 155 m 349 951 q 536 873 458 951 q 614 686 614 795 l 614 288 q 533 98 614 176 l 522 87 l 528 73 l 557 1 l 433 -48 l 410 12 l 403 28 l 386 25 q 349 22 367 22 q 161 100 239 22 q 83 288 83 178 l 83 686 q 161 873 83 795 q 349 951 239 951 z "},"r":{"ha":749,"x_min":61,"x_max":688,"o":"m 238 553 l 238 796 l 359 796 q 437 764 405 796 q 470 686 470 731 l 470 663 q 437 585 470 618 q 359 553 405 553 l 238 553 m 61 972 l 61 0 l 238 0 l 238 376 l 315 376 l 492 0 l 688 0 l 494 410 q 605 513 564 447 q 647 663 647 583 l 647 686 q 563 888 647 804 q 359 972 478 972 l 61 972 m 216 530 l 359 530 q 453 570 414 530 q 492 663 492 608 l 492 686 q 453 779 492 740 q 359 818 414 818 l 216 818 l 216 530 m 359 951 q 547 873 469 951 q 625 686 625 795 l 625 663 q 587 527 625 590 q 484 429 549 464 l 466 419 l 475 400 l 652 22 l 506 22 l 335 385 l 329 398 l 216 398 l 216 22 l 83 22 l 83 951 l 359 951 z "},"s":{"ha":697,"x_min":61,"x_max":636,"o":"m 349 972 q 145 888 230 972 q 61 686 61 804 q 145 482 61 566 q 349 398 230 398 q 427 366 394 398 q 459 288 459 333 q 427 210 459 241 q 349 177 394 177 q 271 210 302 177 q 238 288 238 241 l 238 309 l 61 309 l 61 288 q 145 84 61 169 q 349 0 230 0 q 551 84 467 0 q 636 288 636 169 q 551 490 636 406 q 349 575 467 575 q 271 607 302 575 q 238 686 238 640 q 271 764 238 731 q 349 796 302 796 q 427 764 394 796 q 459 686 459 731 l 459 663 l 636 663 l 636 686 q 551 888 636 804 q 349 972 467 972 m 349 951 q 536 873 458 951 q 614 686 614 795 l 481 686 q 442 779 481 740 q 349 818 404 818 q 255 779 294 818 q 216 686 216 740 q 255 591 216 631 q 349 553 294 553 q 536 475 458 553 q 614 288 614 397 q 536 100 614 178 q 349 22 458 22 q 161 100 239 22 q 83 288 83 178 l 216 288 q 255 194 216 233 q 349 155 294 155 q 442 194 404 155 q 481 288 481 233 q 442 381 481 342 q 349 420 404 420 q 161 498 239 420 q 83 686 83 576 q 161 873 83 795 q 349 951 239 951 z "},"t":{"ha":697,"x_min":61,"x_max":636,"o":"m 61 972 l 61 796 l 260 796 l 260 0 l 437 0 l 437 796 l 636 796 l 636 972 l 61 972 m 83 951 l 614 951 l 614 818 l 415 818 l 415 22 l 282 22 l 282 818 l 83 818 l 83 951 z "},"u":{"ha":697,"x_min":61,"x_max":636,"o":"m 636 972 l 459 972 l 459 288 q 427 210 459 241 q 349 177 394 177 q 271 210 302 177 q 238 288 238 241 l 238 972 l 61 972 l 61 288 q 145 84 61 169 q 349 0 230 0 q 551 84 467 0 q 636 288 636 169 l 636 972 m 614 951 l 614 288 q 536 100 614 178 q 349 22 458 22 q 161 100 239 22 q 83 288 83 178 l 83 951 l 216 951 l 216 288 q 255 194 216 233 q 349 155 294 155 q 442 194 404 155 q 481 288 481 233 l 481 951 l 614 951 z "},"v":{"ha":769,"x_min":61,"x_max":708,"o":"m 526 972 l 385 377 l 243 972 l 61 972 l 293 0 l 477 0 l 708 972 l 526 972 m 406 372 l 544 951 l 680 951 l 459 22 l 310 22 l 89 951 l 225 951 l 363 372 l 385 282 l 406 372 z "},"w":{"ha":1255,"x_min":61,"x_max":1194,"o":"m 1013 972 l 871 377 l 729 972 l 526 972 l 385 377 l 243 972 l 61 972 l 293 0 l 477 0 l 628 635 l 779 0 l 963 0 l 1194 972 l 1013 972 m 892 372 l 1030 951 l 1166 951 l 945 22 l 796 22 l 649 640 l 628 730 l 606 640 l 459 22 l 310 22 l 89 951 l 225 951 l 363 372 l 385 282 l 406 372 l 544 951 l 711 951 l 850 372 l 871 282 l 892 372 z "},"x":{"ha":766,"x_min":61,"x_max":705,"o":"m 510 972 l 383 697 l 256 972 l 61 972 l 286 486 l 61 0 l 256 0 l 383 275 l 510 0 l 705 0 l 480 486 l 705 972 l 510 972 m 403 688 l 524 951 l 670 951 l 460 496 l 456 486 l 460 477 l 670 22 l 524 22 l 403 285 l 383 328 l 363 285 l 241 22 l 96 22 l 306 477 l 310 486 l 306 496 l 96 951 l 241 951 l 363 688 l 383 645 l 403 688 z "},"y":{"ha":818,"x_min":61,"x_max":757,"o":"m 566 972 l 409 588 l 252 972 l 61 972 l 321 336 l 321 0 l 497 0 l 497 336 l 757 972 l 566 972 m 429 580 l 581 951 l 724 951 l 477 345 l 475 340 l 475 22 l 342 22 l 342 340 l 341 345 l 94 951 l 237 951 l 389 580 l 409 530 l 429 580 z "},"z":{"ha":748,"x_min":61,"x_max":687,"o":"m 109 972 l 109 796 l 415 796 l 61 0 l 640 0 l 640 177 l 333 177 l 687 972 l 109 972 m 131 951 l 653 951 l 313 186 l 299 155 l 617 155 l 617 22 l 95 22 l 435 787 l 449 818 l 131 818 l 131 951 z "},"¨":{"ha":476,"x_min":61,"x_max":415,"o":"m 282 846 l 415 846 l 415 978 l 282 978 l 282 846 m 304 956 l 393 956 l 393 869 l 304 869 l 304 956 m 61 846 l 194 846 l 194 978 l 61 978 l 61 846 m 83 956 l 172 956 l 172 869 l 83 869 l 83 956 z "},"°":{"ha":401,"x_min":61,"x_max":340,"o":"m 200 867 q 164 882 179 867 q 149 918 149 897 q 164 954 149 939 q 200 968 179 968 q 236 954 221 968 q 251 918 251 939 q 236 882 251 897 q 200 867 221 867 m 200 1057 q 102 1016 142 1057 q 61 918 61 975 q 102 819 61 860 q 200 779 142 779 q 298 819 258 779 q 340 918 340 860 q 298 1016 340 975 q 200 1057 258 1057 m 200 845 q 252 866 231 845 q 273 918 273 888 q 252 969 273 948 q 200 991 231 991 q 149 969 170 991 q 127 918 127 948 q 149 866 127 888 q 200 845 170 845 m 200 1035 q 283 1000 249 1035 q 317 918 317 966 q 283 835 317 869 q 200 801 249 801 q 117 835 152 801 q 83 918 83 869 q 117 1000 83 966 q 200 1035 152 1035 z "},"´":{"ha":307,"x_min":61,"x_max":245,"o":"m 98 1023 l 61 809 l 172 809 l 245 1023 l 98 1023 m 117 1001 l 214 1001 l 156 831 l 87 831 l 117 1001 z "},"À":{"ha":769,"x_min":61,"x_max":708,"o":"m 293 972 l 61 0 l 243 0 l 275 133 l 495 133 l 526 0 l 708 0 l 477 972 l 293 972 m 310 951 l 459 951 l 680 22 l 544 22 l 516 138 l 512 155 l 257 155 l 253 138 l 225 22 l 89 22 l 310 951 m 363 600 l 295 315 l 288 288 l 481 288 l 474 315 l 406 600 l 385 691 l 363 600 m 385 595 l 452 309 l 317 309 l 385 595 m 262 1305 l 336 1092 l 446 1092 l 409 1305 l 262 1305 m 293 1284 l 391 1284 l 420 1114 l 351 1114 l 293 1284 z "},"Á":{"ha":769,"x_min":61,"x_max":708,"o":"m 293 972 l 61 0 l 243 0 l 275 133 l 495 133 l 526 0 l 708 0 l 477 972 l 293 972 m 310 951 l 459 951 l 680 22 l 544 22 l 516 138 l 512 155 l 257 155 l 253 138 l 225 22 l 89 22 l 310 951 m 363 600 l 295 315 l 288 288 l 481 288 l 474 315 l 406 600 l 385 691 l 363 600 m 385 595 l 452 309 l 317 309 l 385 595 m 360 1301 l 323 1087 l 434 1087 l 508 1301 l 360 1301 m 379 1279 l 477 1279 l 418 1109 l 350 1109 l 379 1279 z "},"Â":{"ha":769,"x_min":61,"x_max":708,"o":"m 293 972 l 61 0 l 243 0 l 275 133 l 495 133 l 526 0 l 708 0 l 477 972 l 293 972 m 310 951 l 459 951 l 680 22 l 544 22 l 516 138 l 512 155 l 257 155 l 253 138 l 225 22 l 89 22 l 310 951 m 363 600 l 295 315 l 288 288 l 481 288 l 474 315 l 406 600 l 385 691 l 363 600 m 385 595 l 452 309 l 317 309 l 385 595 m 385 1333 l 210 1133 l 294 1061 l 385 1164 l 475 1061 l 559 1133 l 385 1333 m 241 1135 l 385 1299 l 528 1135 l 477 1092 l 401 1179 l 385 1198 l 368 1179 l 292 1092 l 241 1135 z "},"Ã":{"ha":769,"x_min":61,"x_max":708,"o":"m 293 972 l 61 0 l 243 0 l 275 133 l 495 133 l 526 0 l 708 0 l 477 972 l 293 972 m 310 951 l 459 951 l 680 22 l 544 22 l 516 138 l 512 155 l 257 155 l 253 138 l 225 22 l 89 22 l 310 951 m 363 600 l 295 315 l 288 288 l 481 288 l 474 315 l 406 600 l 385 691 l 363 600 m 385 595 l 452 309 l 317 309 l 385 595 m 322 1276 q 189 1208 242 1276 l 277 1140 l 276 1139 q 304 1161 288 1154 q 321 1165 313 1165 q 353 1153 336 1165 q 448 1118 398 1118 q 470 1120 459 1118 q 580 1192 538 1131 l 489 1255 l 489 1255 q 452 1229 473 1232 q 448 1229 450 1229 q 420 1241 435 1229 q 322 1276 373 1276 m 322 1254 q 406 1223 366 1254 q 448 1206 428 1206 q 455 1207 452 1206 q 492 1225 473 1210 l 547 1187 q 467 1142 511 1149 q 448 1141 457 1141 q 366 1171 406 1141 q 321 1187 344 1187 q 295 1181 309 1187 q 275 1169 285 1177 l 222 1211 q 322 1254 267 1254 z "},"Ä":{"ha":769,"x_min":61,"x_max":708,"o":"m 293 972 l 61 0 l 243 0 l 275 133 l 495 133 l 526 0 l 708 0 l 477 972 l 293 972 m 310 951 l 459 951 l 680 22 l 544 22 l 516 138 l 512 155 l 257 155 l 253 138 l 225 22 l 89 22 l 310 951 m 363 600 l 295 315 l 288 288 l 481 288 l 474 315 l 406 600 l 385 691 l 363 600 m 385 595 l 452 309 l 317 309 l 385 595 m 429 1124 l 562 1124 l 562 1256 l 429 1256 l 429 1124 m 451 1234 l 539 1234 l 539 1147 l 451 1147 l 451 1234 m 208 1124 l 340 1124 l 340 1256 l 208 1256 l 208 1124 m 230 1234 l 318 1234 l 318 1147 l 230 1147 l 230 1234 z "},"Å":{"ha":769,"x_min":61,"x_max":708,"o":"m 293 972 l 61 0 l 243 0 l 275 133 l 495 133 l 526 0 l 708 0 l 477 972 l 293 972 m 310 951 l 459 951 l 680 22 l 544 22 l 516 138 l 512 155 l 257 155 l 253 138 l 225 22 l 89 22 l 310 951 m 363 600 l 295 315 l 288 288 l 481 288 l 474 315 l 406 600 l 385 691 l 363 600 m 385 595 l 452 309 l 317 309 l 385 595 m 385 1145 q 349 1160 363 1145 q 334 1196 334 1175 q 349 1232 334 1217 q 385 1246 363 1246 q 420 1232 406 1246 q 435 1196 435 1217 q 420 1160 435 1175 q 385 1145 406 1145 m 385 1335 q 286 1294 327 1335 q 245 1196 245 1253 q 286 1097 245 1138 q 385 1057 327 1057 q 483 1097 442 1057 q 524 1196 524 1138 q 483 1294 524 1253 q 385 1335 442 1335 m 385 1123 q 436 1144 415 1123 q 458 1196 458 1166 q 436 1247 458 1226 q 385 1269 415 1269 q 333 1247 355 1269 q 312 1196 312 1226 q 333 1144 312 1166 q 385 1123 355 1123 m 385 1313 q 467 1278 433 1313 q 502 1196 502 1244 q 467 1113 502 1147 q 385 1079 433 1079 q 302 1113 336 1079 q 268 1196 268 1147 q 302 1278 268 1244 q 385 1313 336 1313 z "},"Æ":{"ha":1173,"x_min":61,"x_max":1112,"o":"m 385 972 l 61 0 l 248 0 l 292 133 l 511 133 l 530 0 l 1112 0 l 1112 177 l 714 177 l 714 398 l 1024 398 l 1024 575 l 714 575 l 714 796 l 1112 796 l 1112 972 l 385 972 m 401 951 l 1090 951 l 1090 818 l 692 818 l 692 553 l 1002 553 l 1002 420 l 692 420 l 692 155 l 1090 155 l 1090 22 l 549 22 l 533 136 l 530 155 l 276 155 l 271 140 l 231 22 l 92 22 l 401 951 m 425 601 l 330 317 l 320 288 l 511 288 l 508 313 l 467 597 l 454 690 l 425 601 m 446 594 l 486 309 l 351 309 l 446 594 z "},"Ç":{"ha":697,"x_min":61,"x_max":636,"o":"m 349 972 q 145 887 230 972 q 61 684 61 803 l 61 286 q 131 98 61 180 q 304 2 200 18 l 304 -90 l 393 -90 l 393 2 q 566 98 496 18 q 636 286 636 180 l 636 309 l 459 309 l 459 286 q 427 208 459 241 q 349 176 394 176 q 271 208 302 176 q 238 286 238 241 l 238 684 q 271 762 238 730 q 349 795 302 795 q 427 762 394 795 q 459 684 459 730 l 459 662 l 636 662 l 636 684 q 551 887 636 803 q 349 972 467 972 m 349 949 q 536 871 458 949 q 614 684 614 794 l 481 684 q 442 778 481 739 q 349 817 404 817 q 255 778 294 817 q 216 684 216 739 l 216 286 q 255 193 216 231 q 349 154 294 154 q 442 193 404 154 q 481 286 481 231 l 614 286 q 549 113 614 188 q 389 24 485 39 l 370 21 l 370 -67 l 326 -67 l 326 21 l 308 24 q 148 113 212 39 q 83 286 83 188 l 83 684 q 161 871 83 794 q 349 949 239 949 z "},"È":{"ha":697,"x_min":61,"x_max":636,"o":"m 61 972 l 61 0 l 636 0 l 636 177 l 238 177 l 238 398 l 547 398 l 547 575 l 238 575 l 238 796 l 636 796 l 636 972 l 61 972 m 83 951 l 614 951 l 614 818 l 216 818 l 216 553 l 526 553 l 526 420 l 216 420 l 216 155 l 614 155 l 614 22 l 83 22 l 83 951 m 226 1305 l 300 1092 l 410 1092 l 373 1305 l 226 1305 m 257 1284 l 355 1284 l 384 1114 l 315 1114 l 257 1284 z "},"É":{"ha":697,"x_min":61,"x_max":636,"o":"m 61 972 l 61 0 l 636 0 l 636 177 l 238 177 l 238 398 l 547 398 l 547 575 l 238 575 l 238 796 l 636 796 l 636 972 l 61 972 m 83 951 l 614 951 l 614 818 l 216 818 l 216 553 l 526 553 l 526 420 l 216 420 l 216 155 l 614 155 l 614 22 l 83 22 l 83 951 m 323 1301 l 287 1087 l 397 1087 l 471 1301 l 323 1301 m 342 1279 l 440 1279 l 382 1109 l 313 1109 l 342 1279 z "},"Ê":{"ha":697,"x_min":61,"x_max":636,"o":"m 61 972 l 61 0 l 636 0 l 636 177 l 238 177 l 238 398 l 547 398 l 547 575 l 238 575 l 238 796 l 636 796 l 636 972 l 61 972 m 83 951 l 614 951 l 614 818 l 216 818 l 216 553 l 526 553 l 526 420 l 216 420 l 216 155 l 614 155 l 614 22 l 83 22 l 83 951 m 349 1333 l 174 1133 l 258 1061 l 349 1164 l 439 1061 l 523 1133 l 349 1333 m 205 1135 l 349 1299 l 492 1135 l 441 1092 l 365 1179 l 349 1198 l 332 1179 l 256 1092 l 205 1135 z "},"Ë":{"ha":697,"x_min":61,"x_max":636,"o":"m 61 972 l 61 0 l 636 0 l 636 177 l 238 177 l 238 398 l 547 398 l 547 575 l 238 575 l 238 796 l 636 796 l 636 972 l 61 972 m 83 951 l 614 951 l 614 818 l 216 818 l 216 553 l 526 553 l 526 420 l 216 420 l 216 155 l 614 155 l 614 22 l 83 22 l 83 951 m 393 1124 l 526 1124 l 526 1256 l 393 1256 l 393 1124 m 415 1234 l 503 1234 l 503 1147 l 415 1147 l 415 1234 m 172 1124 l 304 1124 l 304 1256 l 172 1256 l 172 1124 m 194 1234 l 282 1234 l 282 1147 l 194 1147 l 194 1234 z "},"Ì":{"ha":334,"x_min":61,"x_max":273,"o":"m 96 0 l 273 0 l 273 972 l 96 972 l 96 0 m 118 951 l 250 951 l 250 22 l 118 22 l 118 951 m 61 1305 l 135 1092 l 245 1092 l 208 1305 l 61 1305 m 92 1284 l 190 1284 l 219 1114 l 151 1114 l 92 1284 z "},"Í":{"ha":334,"x_min":61,"x_max":273,"o":"m 61 0 l 238 0 l 238 972 l 61 972 l 61 0 m 83 951 l 216 951 l 216 22 l 83 22 l 83 951 m 125 1301 l 88 1087 l 199 1087 l 273 1301 l 125 1301 m 144 1279 l 241 1279 l 183 1109 l 115 1109 l 144 1279 z "},"Î":{"ha":471,"x_min":61,"x_max":410,"o":"m 147 0 l 324 0 l 324 972 l 147 972 l 147 0 m 170 951 l 302 951 l 302 22 l 170 22 l 170 951 m 235 1333 l 61 1133 l 144 1061 l 235 1164 l 326 1061 l 410 1133 l 235 1333 m 92 1135 l 235 1299 l 378 1135 l 328 1092 l 252 1179 l 235 1198 l 218 1179 l 142 1092 l 92 1135 z "},"Ï":{"ha":476,"x_min":61,"x_max":415,"o":"m 149 0 l 326 0 l 326 972 l 149 972 l 149 0 m 172 951 l 304 951 l 304 22 l 172 22 l 172 951 m 282 1124 l 415 1124 l 415 1256 l 282 1256 l 282 1124 m 304 1234 l 393 1234 l 393 1147 l 304 1147 l 304 1234 m 61 1124 l 194 1124 l 194 1256 l 61 1256 l 61 1124 m 83 1234 l 172 1234 l 172 1147 l 83 1147 l 83 1234 z "},"Ð":{"ha":745,"x_min":61,"x_max":684,"o":"m 287 575 l 287 796 l 397 796 q 475 764 443 796 q 508 686 508 731 l 508 288 q 475 210 508 241 q 397 177 443 177 l 287 177 l 287 398 l 428 398 l 428 575 l 287 575 m 110 972 l 110 575 l 61 575 l 61 398 l 110 398 l 110 0 l 397 0 q 600 84 516 0 q 684 288 684 169 l 684 686 q 600 888 684 804 q 397 972 516 972 l 110 972 m 264 553 l 406 553 l 406 420 l 264 420 l 264 155 l 397 155 q 491 194 452 155 q 530 288 530 233 l 530 686 q 491 779 530 740 q 397 818 452 818 l 264 818 l 264 553 m 397 951 q 585 873 507 951 q 663 686 663 795 l 663 288 q 585 100 663 178 q 397 22 507 22 l 132 22 l 132 420 l 83 420 l 83 553 l 132 553 l 132 951 l 397 951 z "},"Ñ":{"ha":697,"x_min":61,"x_max":636,"o":"m 459 972 l 459 450 l 245 972 l 61 972 l 61 0 l 238 0 l 238 523 l 452 0 l 636 0 l 636 972 l 459 972 m 481 951 l 614 951 l 614 22 l 467 22 l 258 532 l 216 635 l 216 22 l 83 22 l 83 951 l 230 951 l 439 441 l 481 337 l 481 951 m 286 1276 q 153 1208 206 1276 l 241 1140 l 240 1139 q 268 1161 252 1154 q 286 1165 277 1165 q 317 1153 300 1165 q 412 1118 362 1118 q 434 1120 423 1118 q 544 1192 502 1131 l 453 1255 l 453 1255 q 416 1229 437 1232 q 412 1229 414 1229 q 384 1241 399 1229 q 286 1276 337 1276 m 286 1254 q 370 1223 330 1254 q 412 1206 392 1206 q 419 1207 416 1206 q 456 1225 437 1210 l 511 1187 q 431 1142 475 1149 q 412 1141 421 1141 q 330 1171 370 1141 q 286 1187 308 1187 q 259 1181 273 1187 q 239 1169 249 1177 l 186 1211 q 286 1254 231 1254 z "},"Ò":{"ha":697,"x_min":61,"x_max":636,"o":"m 349 177 q 271 210 302 177 q 238 288 238 241 l 238 686 q 271 764 238 731 q 349 796 302 796 q 427 764 394 796 q 459 686 459 731 l 459 288 q 427 210 459 241 q 349 177 394 177 m 349 972 q 145 888 230 972 q 61 686 61 804 l 61 288 q 145 84 61 169 q 349 0 230 0 q 551 84 467 0 q 636 288 636 169 l 636 686 q 551 888 636 804 q 349 972 467 972 m 349 155 q 442 194 404 155 q 481 288 481 233 l 481 686 q 442 779 481 740 q 349 818 404 818 q 255 779 294 818 q 216 686 216 740 l 216 288 q 255 194 216 233 q 349 155 294 155 m 349 951 q 536 873 458 951 q 614 686 614 795 l 614 288 q 536 100 614 178 q 349 22 458 22 q 161 100 239 22 q 83 288 83 178 l 83 686 q 161 873 83 795 q 349 951 239 951 m 226 1305 l 300 1092 l 410 1092 l 373 1305 l 226 1305 m 257 1284 l 355 1284 l 384 1114 l 315 1114 l 257 1284 z "},"Ó":{"ha":697,"x_min":61,"x_max":636,"o":"m 349 177 q 271 210 302 177 q 238 288 238 241 l 238 686 q 271 764 238 731 q 349 796 302 796 q 427 764 394 796 q 459 686 459 731 l 459 288 q 427 210 459 241 q 349 177 394 177 m 349 972 q 145 888 230 972 q 61 686 61 804 l 61 288 q 145 84 61 169 q 349 0 230 0 q 551 84 467 0 q 636 288 636 169 l 636 686 q 551 888 636 804 q 349 972 467 972 m 349 155 q 442 194 404 155 q 481 288 481 233 l 481 686 q 442 779 481 740 q 349 818 404 818 q 255 779 294 818 q 216 686 216 740 l 216 288 q 255 194 216 233 q 349 155 294 155 m 349 951 q 536 873 458 951 q 614 686 614 795 l 614 288 q 536 100 614 178 q 349 22 458 22 q 161 100 239 22 q 83 288 83 178 l 83 686 q 161 873 83 795 q 349 951 239 951 m 323 1301 l 287 1087 l 397 1087 l 471 1301 l 323 1301 m 342 1279 l 440 1279 l 382 1109 l 313 1109 l 342 1279 z "},"Ô":{"ha":697,"x_min":61,"x_max":636,"o":"m 349 177 q 271 210 302 177 q 238 288 238 241 l 238 686 q 271 764 238 731 q 349 796 302 796 q 427 764 394 796 q 459 686 459 731 l 459 288 q 427 210 459 241 q 349 177 394 177 m 349 972 q 145 888 230 972 q 61 686 61 804 l 61 288 q 145 84 61 169 q 349 0 230 0 q 551 84 467 0 q 636 288 636 169 l 636 686 q 551 888 636 804 q 349 972 467 972 m 349 155 q 442 194 404 155 q 481 288 481 233 l 481 686 q 442 779 481 740 q 349 818 404 818 q 255 779 294 818 q 216 686 216 740 l 216 288 q 255 194 216 233 q 349 155 294 155 m 349 951 q 536 873 458 951 q 614 686 614 795 l 614 288 q 536 100 614 178 q 349 22 458 22 q 161 100 239 22 q 83 288 83 178 l 83 686 q 161 873 83 795 q 349 951 239 951 m 349 1333 l 174 1133 l 258 1061 l 349 1164 l 439 1061 l 523 1133 l 349 1333 m 205 1135 l 349 1299 l 492 1135 l 441 1092 l 365 1179 l 349 1198 l 332 1179 l 256 1092 l 205 1135 z "},"Õ":{"ha":697,"x_min":61,"x_max":636,"o":"m 349 177 q 271 210 302 177 q 238 288 238 241 l 238 686 q 271 764 238 731 q 349 796 302 796 q 427 764 394 796 q 459 686 459 731 l 459 288 q 427 210 459 241 q 349 177 394 177 m 349 972 q 145 888 230 972 q 61 686 61 804 l 61 288 q 145 84 61 169 q 349 0 230 0 q 551 84 467 0 q 636 288 636 169 l 636 686 q 551 888 636 804 q 349 972 467 972 m 349 155 q 442 194 404 155 q 481 288 481 233 l 481 686 q 442 779 481 740 q 349 818 404 818 q 255 779 294 818 q 216 686 216 740 l 216 288 q 255 194 216 233 q 349 155 294 155 m 349 951 q 536 873 458 951 q 614 686 614 795 l 614 288 q 536 100 614 178 q 349 22 458 22 q 161 100 239 22 q 83 288 83 178 l 83 686 q 161 873 83 795 q 349 951 239 951 m 286 1276 q 153 1208 206 1276 l 241 1140 l 240 1139 q 268 1161 252 1154 q 286 1165 277 1165 q 317 1153 300 1165 q 412 1118 362 1118 q 434 1120 423 1118 q 544 1192 502 1131 l 453 1255 l 453 1255 q 416 1229 437 1232 q 412 1229 414 1229 q 384 1241 399 1229 q 286 1276 337 1276 m 286 1254 q 370 1223 330 1254 q 412 1206 392 1206 q 419 1207 416 1206 q 456 1225 437 1210 l 511 1187 q 431 1142 475 1149 q 412 1141 421 1141 q 330 1171 370 1141 q 286 1187 308 1187 q 259 1181 273 1187 q 239 1169 249 1177 l 186 1211 q 286 1254 231 1254 z "},"Ö":{"ha":697,"x_min":61,"x_max":636,"o":"m 349 177 q 271 210 302 177 q 238 288 238 241 l 238 686 q 271 764 238 731 q 349 796 302 796 q 427 764 394 796 q 459 686 459 731 l 459 288 q 427 210 459 241 q 349 177 394 177 m 349 972 q 145 888 230 972 q 61 686 61 804 l 61 288 q 145 84 61 169 q 349 0 230 0 q 551 84 467 0 q 636 288 636 169 l 636 686 q 551 888 636 804 q 349 972 467 972 m 349 155 q 442 194 404 155 q 481 288 481 233 l 481 686 q 442 779 481 740 q 349 818 404 818 q 255 779 294 818 q 216 686 216 740 l 216 288 q 255 194 216 233 q 349 155 294 155 m 349 951 q 536 873 458 951 q 614 686 614 795 l 614 288 q 536 100 614 178 q 349 22 458 22 q 161 100 239 22 q 83 288 83 178 l 83 686 q 161 873 83 795 q 349 951 239 951 m 393 1124 l 526 1124 l 526 1256 l 393 1256 l 393 1124 m 415 1234 l 503 1234 l 503 1147 l 415 1147 l 415 1234 m 172 1124 l 304 1124 l 304 1256 l 172 1256 l 172 1124 m 194 1234 l 282 1234 l 282 1147 l 194 1147 l 194 1234 z "},"×":{"ha":623,"x_min":61,"x_max":562,"o":"m 436 733 l 311 608 l 186 733 l 61 608 l 186 483 l 61 357 l 186 233 l 311 357 l 436 233 l 562 357 l 436 483 l 562 608 l 436 733 m 327 592 l 436 702 l 530 608 l 420 498 l 405 483 l 420 467 l 530 357 l 436 264 l 327 373 l 311 389 l 296 373 l 186 264 l 92 357 l 201 467 l 218 483 l 201 498 l 92 608 l 186 702 l 296 592 l 311 576 l 327 592 z "},"Ø":{"ha":697,"x_min":61,"x_max":636,"o":"m 349 177 q 267 212 300 177 l 459 616 l 459 288 q 427 210 459 241 q 349 177 394 177 m 238 356 l 238 686 q 271 764 238 731 q 349 796 302 796 q 429 760 397 796 l 238 356 m 628 972 l 530 972 l 507 925 q 349 972 435 972 q 145 888 230 972 q 61 686 61 804 l 61 288 q 122 111 61 189 l 69 0 l 167 0 l 190 48 q 349 0 262 0 q 551 84 467 0 q 636 288 636 169 l 636 686 q 575 862 636 784 l 628 972 m 349 155 q 442 194 404 155 q 481 288 481 233 l 481 715 l 439 626 l 248 222 l 241 208 l 252 197 q 349 155 291 155 m 216 258 l 258 347 l 450 751 l 456 764 l 446 776 q 349 818 406 818 q 255 779 294 818 q 216 686 216 740 l 216 258 m 593 951 l 555 871 l 549 859 l 557 848 q 614 686 614 777 l 614 288 q 536 100 614 178 q 349 22 458 22 q 202 66 269 22 l 180 81 l 170 58 l 153 22 l 104 22 l 142 102 l 148 114 l 139 125 q 83 288 83 197 l 83 686 q 161 873 83 795 q 349 951 239 951 q 495 906 429 951 l 516 892 l 527 916 l 544 951 l 593 951 z "},"Ù":{"ha":697,"x_min":61,"x_max":636,"o":"m 636 972 l 459 972 l 459 288 q 427 210 459 241 q 349 177 394 177 q 271 210 302 177 q 238 288 238 241 l 238 972 l 61 972 l 61 288 q 145 84 61 169 q 349 0 230 0 q 551 84 467 0 q 636 288 636 169 l 636 972 m 614 951 l 614 288 q 536 100 614 178 q 349 22 458 22 q 161 100 239 22 q 83 288 83 178 l 83 951 l 216 951 l 216 288 q 255 194 216 233 q 349 155 294 155 q 442 194 404 155 q 481 288 481 233 l 481 951 l 614 951 m 226 1305 l 300 1092 l 410 1092 l 373 1305 l 226 1305 m 257 1284 l 355 1284 l 384 1114 l 315 1114 l 257 1284 z "},"Ú":{"ha":697,"x_min":61,"x_max":636,"o":"m 636 972 l 459 972 l 459 288 q 427 210 459 241 q 349 177 394 177 q 271 210 302 177 q 238 288 238 241 l 238 972 l 61 972 l 61 288 q 145 84 61 169 q 349 0 230 0 q 551 84 467 0 q 636 288 636 169 l 636 972 m 614 951 l 614 288 q 536 100 614 178 q 349 22 458 22 q 161 100 239 22 q 83 288 83 178 l 83 951 l 216 951 l 216 288 q 255 194 216 233 q 349 155 294 155 q 442 194 404 155 q 481 288 481 233 l 481 951 l 614 951 m 323 1301 l 287 1087 l 397 1087 l 471 1301 l 323 1301 m 342 1279 l 440 1279 l 382 1109 l 313 1109 l 342 1279 z "},"Û":{"ha":697,"x_min":61,"x_max":636,"o":"m 636 972 l 459 972 l 459 288 q 427 210 459 241 q 349 177 394 177 q 271 210 302 177 q 238 288 238 241 l 238 972 l 61 972 l 61 288 q 145 84 61 169 q 349 0 230 0 q 551 84 467 0 q 636 288 636 169 l 636 972 m 614 951 l 614 288 q 536 100 614 178 q 349 22 458 22 q 161 100 239 22 q 83 288 83 178 l 83 951 l 216 951 l 216 288 q 255 194 216 233 q 349 155 294 155 q 442 194 404 155 q 481 288 481 233 l 481 951 l 614 951 m 349 1333 l 174 1133 l 258 1061 l 349 1164 l 439 1061 l 523 1133 l 349 1333 m 205 1135 l 349 1299 l 492 1135 l 441 1092 l 365 1179 l 349 1198 l 332 1179 l 256 1092 l 205 1135 z "},"Ü":{"ha":697,"x_min":61,"x_max":636,"o":"m 636 972 l 459 972 l 459 288 q 427 210 459 241 q 349 177 394 177 q 271 210 302 177 q 238 288 238 241 l 238 972 l 61 972 l 61 288 q 145 84 61 169 q 349 0 230 0 q 551 84 467 0 q 636 288 636 169 l 636 972 m 614 951 l 614 288 q 536 100 614 178 q 349 22 458 22 q 161 100 239 22 q 83 288 83 178 l 83 951 l 216 951 l 216 288 q 255 194 216 233 q 349 155 294 155 q 442 194 404 155 q 481 288 481 233 l 481 951 l 614 951 m 393 1124 l 526 1124 l 526 1256 l 393 1256 l 393 1124 m 415 1234 l 503 1234 l 503 1147 l 415 1147 l 415 1234 m 172 1124 l 304 1124 l 304 1256 l 172 1256 l 172 1124 m 194 1234 l 282 1234 l 282 1147 l 194 1147 l 194 1234 z "},"Ý":{"ha":818,"x_min":61,"x_max":757,"o":"m 566 972 l 409 588 l 252 972 l 61 972 l 321 336 l 321 0 l 497 0 l 497 336 l 757 972 l 566 972 m 429 580 l 581 951 l 724 951 l 477 345 l 475 340 l 475 22 l 342 22 l 342 340 l 341 345 l 94 951 l 237 951 l 389 580 l 409 530 l 429 580 m 385 1301 l 348 1087 l 458 1087 l 532 1301 l 385 1301 m 404 1279 l 501 1279 l 443 1109 l 374 1109 l 404 1279 z "},"Þ":{"ha":719,"x_min":61,"x_max":658,"o":"m 238 376 l 238 597 l 370 597 q 449 564 416 597 q 481 486 481 532 q 449 408 481 441 q 370 376 416 376 l 238 376 m 238 972 l 61 972 l 61 0 l 238 0 l 238 199 l 370 199 q 574 283 490 199 q 658 486 658 368 q 574 690 658 605 q 370 774 490 774 l 238 774 l 238 972 m 216 354 l 370 354 q 465 393 425 354 q 503 486 503 431 q 465 580 503 541 q 370 619 425 619 l 216 619 l 216 354 m 216 951 l 216 751 l 370 751 q 558 674 480 751 q 636 486 636 596 q 558 299 636 376 q 370 221 480 221 l 216 221 l 216 22 l 83 22 l 83 951 l 216 951 z "},"ß":{"ha":697,"x_min":61,"x_max":636,"o":"m 349 972 q 145 888 230 972 q 61 686 61 804 l 61 0 l 238 0 l 238 686 q 271 764 238 731 q 349 796 302 796 q 427 764 394 796 q 459 686 459 731 q 427 607 459 640 q 349 575 394 575 l 326 575 l 326 398 l 349 398 q 427 366 394 398 q 459 288 459 333 q 427 210 459 241 q 349 177 394 177 l 326 177 l 326 0 l 349 0 q 551 84 467 0 q 636 288 636 169 l 636 309 l 635 309 q 555 486 627 412 q 635 663 627 561 l 636 663 l 636 686 q 551 888 636 804 q 349 972 467 972 m 349 951 q 536 873 458 951 q 614 686 614 795 l 614 676 l 613 665 q 540 502 606 570 l 525 486 l 540 471 q 613 308 606 402 l 614 296 l 614 288 q 536 100 614 178 q 349 22 458 22 l 349 155 q 442 194 404 155 q 481 288 481 233 q 442 381 481 342 q 349 420 404 420 l 349 553 q 442 591 404 553 q 481 686 481 631 q 442 779 481 740 q 349 818 404 818 q 255 779 294 818 q 216 686 216 740 l 216 22 l 83 22 l 83 686 q 161 873 83 795 q 349 951 239 951 z "},"à":{"ha":769,"x_min":61,"x_max":708,"o":"m 293 972 l 61 0 l 243 0 l 275 133 l 495 133 l 526 0 l 708 0 l 477 972 l 293 972 m 310 951 l 459 951 l 680 22 l 544 22 l 516 138 l 512 155 l 257 155 l 253 138 l 225 22 l 89 22 l 310 951 m 363 600 l 295 315 l 288 288 l 481 288 l 474 315 l 406 600 l 385 691 l 363 600 m 385 595 l 452 309 l 317 309 l 385 595 m 262 1305 l 336 1092 l 446 1092 l 409 1305 l 262 1305 m 293 1284 l 391 1284 l 420 1114 l 351 1114 l 293 1284 z "},"á":{"ha":769,"x_min":61,"x_max":708,"o":"m 293 972 l 61 0 l 243 0 l 275 133 l 495 133 l 526 0 l 708 0 l 477 972 l 293 972 m 310 951 l 459 951 l 680 22 l 544 22 l 516 138 l 512 155 l 257 155 l 253 138 l 225 22 l 89 22 l 310 951 m 363 600 l 295 315 l 288 288 l 481 288 l 474 315 l 406 600 l 385 691 l 363 600 m 385 595 l 452 309 l 317 309 l 385 595 m 360 1301 l 323 1087 l 434 1087 l 508 1301 l 360 1301 m 379 1279 l 477 1279 l 418 1109 l 350 1109 l 379 1279 z "},"â":{"ha":769,"x_min":61,"x_max":708,"o":"m 293 972 l 61 0 l 243 0 l 275 133 l 495 133 l 526 0 l 708 0 l 477 972 l 293 972 m 310 951 l 459 951 l 680 22 l 544 22 l 516 138 l 512 155 l 257 155 l 253 138 l 225 22 l 89 22 l 310 951 m 363 600 l 295 315 l 288 288 l 481 288 l 474 315 l 406 600 l 385 691 l 363 600 m 385 595 l 452 309 l 317 309 l 385 595 m 385 1333 l 210 1133 l 294 1061 l 385 1164 l 475 1061 l 559 1133 l 385 1333 m 241 1135 l 385 1299 l 528 1135 l 477 1092 l 401 1179 l 385 1198 l 368 1179 l 292 1092 l 241 1135 z "},"ã":{"ha":769,"x_min":61,"x_max":708,"o":"m 293 972 l 61 0 l 243 0 l 275 133 l 495 133 l 526 0 l 708 0 l 477 972 l 293 972 m 310 951 l 459 951 l 680 22 l 544 22 l 516 138 l 512 155 l 257 155 l 253 138 l 225 22 l 89 22 l 310 951 m 363 600 l 295 315 l 288 288 l 481 288 l 474 315 l 406 600 l 385 691 l 363 600 m 385 595 l 452 309 l 317 309 l 385 595 m 322 1276 q 189 1208 242 1276 l 277 1140 l 276 1139 q 304 1161 288 1154 q 321 1165 313 1165 q 353 1153 336 1165 q 448 1118 398 1118 q 470 1120 459 1118 q 580 1192 538 1131 l 489 1255 l 489 1255 q 452 1229 473 1232 q 448 1229 450 1229 q 420 1241 435 1229 q 322 1276 373 1276 m 322 1254 q 406 1223 366 1254 q 448 1206 428 1206 q 455 1207 452 1206 q 492 1225 473 1210 l 547 1187 q 467 1142 511 1149 q 448 1141 457 1141 q 366 1171 406 1141 q 321 1187 344 1187 q 295 1181 309 1187 q 275 1169 285 1177 l 222 1211 q 322 1254 267 1254 z "},"ä":{"ha":769,"x_min":61,"x_max":708,"o":"m 293 972 l 61 0 l 243 0 l 275 133 l 495 133 l 526 0 l 708 0 l 477 972 l 293 972 m 310 951 l 459 951 l 680 22 l 544 22 l 516 138 l 512 155 l 257 155 l 253 138 l 225 22 l 89 22 l 310 951 m 363 600 l 295 315 l 288 288 l 481 288 l 474 315 l 406 600 l 385 691 l 363 600 m 385 595 l 452 309 l 317 309 l 385 595 m 429 1124 l 562 1124 l 562 1256 l 429 1256 l 429 1124 m 451 1234 l 539 1234 l 539 1147 l 451 1147 l 451 1234 m 208 1124 l 340 1124 l 340 1256 l 208 1256 l 208 1124 m 230 1234 l 318 1234 l 318 1147 l 230 1147 l 230 1234 z "},"å":{"ha":769,"x_min":61,"x_max":708,"o":"m 293 972 l 61 0 l 243 0 l 275 133 l 495 133 l 526 0 l 708 0 l 477 972 l 293 972 m 310 951 l 459 951 l 680 22 l 544 22 l 516 138 l 512 155 l 257 155 l 253 138 l 225 22 l 89 22 l 310 951 m 363 600 l 295 315 l 288 288 l 481 288 l 474 315 l 406 600 l 385 691 l 363 600 m 385 595 l 452 309 l 317 309 l 385 595 m 385 1145 q 349 1160 363 1145 q 334 1196 334 1175 q 349 1232 334 1217 q 385 1246 363 1246 q 420 1232 406 1246 q 435 1196 435 1217 q 420 1160 435 1175 q 385 1145 406 1145 m 385 1335 q 286 1294 327 1335 q 245 1196 245 1253 q 286 1097 245 1138 q 385 1057 327 1057 q 483 1097 442 1057 q 524 1196 524 1138 q 483 1294 524 1253 q 385 1335 442 1335 m 385 1123 q 436 1144 415 1123 q 458 1196 458 1166 q 436 1247 458 1226 q 385 1269 415 1269 q 333 1247 355 1269 q 312 1196 312 1226 q 333 1144 312 1166 q 385 1123 355 1123 m 385 1313 q 467 1278 433 1313 q 502 1196 502 1244 q 467 1113 502 1147 q 385 1079 433 1079 q 302 1113 336 1079 q 268 1196 268 1147 q 302 1278 268 1244 q 385 1313 336 1313 z "},"æ":{"ha":1173,"x_min":61,"x_max":1112,"o":"m 385 972 l 61 0 l 248 0 l 292 133 l 511 133 l 530 0 l 1112 0 l 1112 177 l 714 177 l 714 398 l 1024 398 l 1024 575 l 714 575 l 714 796 l 1112 796 l 1112 972 l 385 972 m 401 951 l 1090 951 l 1090 818 l 692 818 l 692 553 l 1002 553 l 1002 420 l 692 420 l 692 155 l 1090 155 l 1090 22 l 549 22 l 533 136 l 530 155 l 276 155 l 271 140 l 231 22 l 92 22 l 401 951 m 425 601 l 330 317 l 320 288 l 511 288 l 508 313 l 467 597 l 454 690 l 425 601 m 446 594 l 486 309 l 351 309 l 446 594 z "},"ç":{"ha":697,"x_min":61,"x_max":636,"o":"m 349 972 q 145 887 230 972 q 61 684 61 803 l 61 286 q 131 98 61 180 q 304 2 200 18 l 304 -90 l 393 -90 l 393 2 q 566 98 496 18 q 636 286 636 180 l 636 309 l 459 309 l 459 286 q 427 208 459 241 q 349 176 394 176 q 271 208 302 176 q 238 286 238 241 l 238 684 q 271 762 238 730 q 349 795 302 795 q 427 762 394 795 q 459 684 459 730 l 459 662 l 636 662 l 636 684 q 551 887 636 803 q 349 972 467 972 m 349 949 q 536 871 458 949 q 614 684 614 794 l 481 684 q 442 778 481 739 q 349 817 404 817 q 255 778 294 817 q 216 684 216 739 l 216 286 q 255 193 216 231 q 349 154 294 154 q 442 193 404 154 q 481 286 481 231 l 614 286 q 549 113 614 188 q 389 24 485 39 l 370 21 l 370 -67 l 326 -67 l 326 21 l 308 24 q 148 113 212 39 q 83 286 83 188 l 83 684 q 161 871 83 794 q 349 949 239 949 z "},"è":{"ha":697,"x_min":61,"x_max":636,"o":"m 61 972 l 61 0 l 636 0 l 636 177 l 238 177 l 238 398 l 547 398 l 547 575 l 238 575 l 238 796 l 636 796 l 636 972 l 61 972 m 83 951 l 614 951 l 614 818 l 216 818 l 216 553 l 526 553 l 526 420 l 216 420 l 216 155 l 614 155 l 614 22 l 83 22 l 83 951 m 226 1305 l 300 1092 l 410 1092 l 373 1305 l 226 1305 m 257 1284 l 355 1284 l 384 1114 l 315 1114 l 257 1284 z "},"é":{"ha":697,"x_min":61,"x_max":636,"o":"m 61 972 l 61 0 l 636 0 l 636 177 l 238 177 l 238 398 l 547 398 l 547 575 l 238 575 l 238 796 l 636 796 l 636 972 l 61 972 m 83 951 l 614 951 l 614 818 l 216 818 l 216 553 l 526 553 l 526 420 l 216 420 l 216 155 l 614 155 l 614 22 l 83 22 l 83 951 m 323 1301 l 287 1087 l 397 1087 l 471 1301 l 323 1301 m 342 1279 l 440 1279 l 382 1109 l 313 1109 l 342 1279 z "},"ê":{"ha":697,"x_min":61,"x_max":636,"o":"m 61 972 l 61 0 l 636 0 l 636 177 l 238 177 l 238 398 l 547 398 l 547 575 l 238 575 l 238 796 l 636 796 l 636 972 l 61 972 m 83 951 l 614 951 l 614 818 l 216 818 l 216 553 l 526 553 l 526 420 l 216 420 l 216 155 l 614 155 l 614 22 l 83 22 l 83 951 m 349 1333 l 174 1133 l 258 1061 l 349 1164 l 439 1061 l 523 1133 l 349 1333 m 205 1135 l 349 1299 l 492 1135 l 441 1092 l 365 1179 l 349 1198 l 332 1179 l 256 1092 l 205 1135 z "},"ë":{"ha":697,"x_min":61,"x_max":636,"o":"m 61 972 l 61 0 l 636 0 l 636 177 l 238 177 l 238 398 l 547 398 l 547 575 l 238 575 l 238 796 l 636 796 l 636 972 l 61 972 m 83 951 l 614 951 l 614 818 l 216 818 l 216 553 l 526 553 l 526 420 l 216 420 l 216 155 l 614 155 l 614 22 l 83 22 l 83 951 m 393 1124 l 526 1124 l 526 1256 l 393 1256 l 393 1124 m 415 1234 l 503 1234 l 503 1147 l 415 1147 l 415 1234 m 172 1124 l 304 1124 l 304 1256 l 172 1256 l 172 1124 m 194 1234 l 282 1234 l 282 1147 l 194 1147 l 194 1234 z "},"ì":{"ha":334,"x_min":61,"x_max":273,"o":"m 96 0 l 273 0 l 273 972 l 96 972 l 96 0 m 118 951 l 250 951 l 250 22 l 118 22 l 118 951 m 61 1305 l 135 1092 l 245 1092 l 208 1305 l 61 1305 m 92 1284 l 190 1284 l 219 1114 l 151 1114 l 92 1284 z "},"í":{"ha":334,"x_min":61,"x_max":273,"o":"m 61 0 l 238 0 l 238 972 l 61 972 l 61 0 m 83 951 l 216 951 l 216 22 l 83 22 l 83 951 m 125 1301 l 88 1087 l 199 1087 l 273 1301 l 125 1301 m 144 1279 l 241 1279 l 183 1109 l 115 1109 l 144 1279 z "},"î":{"ha":471,"x_min":61,"x_max":410,"o":"m 147 0 l 324 0 l 324 972 l 147 972 l 147 0 m 170 951 l 302 951 l 302 22 l 170 22 l 170 951 m 235 1333 l 61 1133 l 144 1061 l 235 1164 l 326 1061 l 410 1133 l 235 1333 m 92 1135 l 235 1299 l 378 1135 l 328 1092 l 252 1179 l 235 1198 l 218 1179 l 142 1092 l 92 1135 z "},"ï":{"ha":476,"x_min":61,"x_max":415,"o":"m 149 0 l 326 0 l 326 972 l 149 972 l 149 0 m 172 951 l 304 951 l 304 22 l 172 22 l 172 951 m 282 1124 l 415 1124 l 415 1256 l 282 1256 l 282 1124 m 304 1234 l 393 1234 l 393 1147 l 304 1147 l 304 1234 m 61 1124 l 194 1124 l 194 1256 l 61 1256 l 61 1124 m 83 1234 l 172 1234 l 172 1147 l 83 1147 l 83 1234 z "},"ð":{"ha":745,"x_min":61,"x_max":684,"o":"m 287 575 l 287 796 l 397 796 q 475 764 443 796 q 508 686 508 731 l 508 288 q 475 210 508 241 q 397 177 443 177 l 287 177 l 287 398 l 428 398 l 428 575 l 287 575 m 110 972 l 110 575 l 61 575 l 61 398 l 110 398 l 110 0 l 397 0 q 600 84 516 0 q 684 288 684 169 l 684 686 q 600 888 684 804 q 397 972 516 972 l 110 972 m 264 553 l 406 553 l 406 420 l 264 420 l 264 155 l 397 155 q 491 194 452 155 q 530 288 530 233 l 530 686 q 491 779 530 740 q 397 818 452 818 l 264 818 l 264 553 m 397 951 q 585 873 507 951 q 663 686 663 795 l 663 288 q 585 100 663 178 q 397 22 507 22 l 132 22 l 132 420 l 83 420 l 83 553 l 132 553 l 132 951 l 397 951 z "},"ñ":{"ha":697,"x_min":61,"x_max":636,"o":"m 459 972 l 459 450 l 245 972 l 61 972 l 61 0 l 238 0 l 238 523 l 452 0 l 636 0 l 636 972 l 459 972 m 481 951 l 614 951 l 614 22 l 467 22 l 258 532 l 216 635 l 216 22 l 83 22 l 83 951 l 230 951 l 439 441 l 481 337 l 481 951 m 286 1276 q 153 1208 206 1276 l 241 1140 l 240 1139 q 268 1161 252 1154 q 286 1165 277 1165 q 317 1153 300 1165 q 412 1118 362 1118 q 434 1120 423 1118 q 544 1192 502 1131 l 453 1255 l 453 1255 q 416 1229 437 1232 q 412 1229 414 1229 q 384 1241 399 1229 q 286 1276 337 1276 m 286 1254 q 370 1223 330 1254 q 412 1206 392 1206 q 419 1207 416 1206 q 456 1225 437 1210 l 511 1187 q 431 1142 475 1149 q 412 1141 421 1141 q 330 1171 370 1141 q 286 1187 308 1187 q 259 1181 273 1187 q 239 1169 249 1177 l 186 1211 q 286 1254 231 1254 z "},"ò":{"ha":697,"x_min":61,"x_max":636,"o":"m 349 177 q 271 210 302 177 q 238 288 238 241 l 238 686 q 271 764 238 731 q 349 796 302 796 q 427 764 394 796 q 459 686 459 731 l 459 288 q 427 210 459 241 q 349 177 394 177 m 349 972 q 145 888 230 972 q 61 686 61 804 l 61 288 q 145 84 61 169 q 349 0 230 0 q 551 84 467 0 q 636 288 636 169 l 636 686 q 551 888 636 804 q 349 972 467 972 m 349 155 q 442 194 404 155 q 481 288 481 233 l 481 686 q 442 779 481 740 q 349 818 404 818 q 255 779 294 818 q 216 686 216 740 l 216 288 q 255 194 216 233 q 349 155 294 155 m 349 951 q 536 873 458 951 q 614 686 614 795 l 614 288 q 536 100 614 178 q 349 22 458 22 q 161 100 239 22 q 83 288 83 178 l 83 686 q 161 873 83 795 q 349 951 239 951 m 226 1305 l 300 1092 l 410 1092 l 373 1305 l 226 1305 m 257 1284 l 355 1284 l 384 1114 l 315 1114 l 257 1284 z "},"ó":{"ha":697,"x_min":61,"x_max":636,"o":"m 349 177 q 271 210 302 177 q 238 288 238 241 l 238 686 q 271 764 238 731 q 349 796 302 796 q 427 764 394 796 q 459 686 459 731 l 459 288 q 427 210 459 241 q 349 177 394 177 m 349 972 q 145 888 230 972 q 61 686 61 804 l 61 288 q 145 84 61 169 q 349 0 230 0 q 551 84 467 0 q 636 288 636 169 l 636 686 q 551 888 636 804 q 349 972 467 972 m 349 155 q 442 194 404 155 q 481 288 481 233 l 481 686 q 442 779 481 740 q 349 818 404 818 q 255 779 294 818 q 216 686 216 740 l 216 288 q 255 194 216 233 q 349 155 294 155 m 349 951 q 536 873 458 951 q 614 686 614 795 l 614 288 q 536 100 614 178 q 349 22 458 22 q 161 100 239 22 q 83 288 83 178 l 83 686 q 161 873 83 795 q 349 951 239 951 m 323 1301 l 287 1087 l 397 1087 l 471 1301 l 323 1301 m 342 1279 l 440 1279 l 382 1109 l 313 1109 l 342 1279 z "},"ô":{"ha":697,"x_min":61,"x_max":636,"o":"m 349 177 q 271 210 302 177 q 238 288 238 241 l 238 686 q 271 764 238 731 q 349 796 302 796 q 427 764 394 796 q 459 686 459 731 l 459 288 q 427 210 459 241 q 349 177 394 177 m 349 972 q 145 888 230 972 q 61 686 61 804 l 61 288 q 145 84 61 169 q 349 0 230 0 q 551 84 467 0 q 636 288 636 169 l 636 686 q 551 888 636 804 q 349 972 467 972 m 349 155 q 442 194 404 155 q 481 288 481 233 l 481 686 q 442 779 481 740 q 349 818 404 818 q 255 779 294 818 q 216 686 216 740 l 216 288 q 255 194 216 233 q 349 155 294 155 m 349 951 q 536 873 458 951 q 614 686 614 795 l 614 288 q 536 100 614 178 q 349 22 458 22 q 161 100 239 22 q 83 288 83 178 l 83 686 q 161 873 83 795 q 349 951 239 951 m 349 1333 l 174 1133 l 258 1061 l 349 1164 l 439 1061 l 523 1133 l 349 1333 m 205 1135 l 349 1299 l 492 1135 l 441 1092 l 365 1179 l 349 1198 l 332 1179 l 256 1092 l 205 1135 z "},"õ":{"ha":697,"x_min":61,"x_max":636,"o":"m 349 177 q 271 210 302 177 q 238 288 238 241 l 238 686 q 271 764 238 731 q 349 796 302 796 q 427 764 394 796 q 459 686 459 731 l 459 288 q 427 210 459 241 q 349 177 394 177 m 349 972 q 145 888 230 972 q 61 686 61 804 l 61 288 q 145 84 61 169 q 349 0 230 0 q 551 84 467 0 q 636 288 636 169 l 636 686 q 551 888 636 804 q 349 972 467 972 m 349 155 q 442 194 404 155 q 481 288 481 233 l 481 686 q 442 779 481 740 q 349 818 404 818 q 255 779 294 818 q 216 686 216 740 l 216 288 q 255 194 216 233 q 349 155 294 155 m 349 951 q 536 873 458 951 q 614 686 614 795 l 614 288 q 536 100 614 178 q 349 22 458 22 q 161 100 239 22 q 83 288 83 178 l 83 686 q 161 873 83 795 q 349 951 239 951 m 286 1276 q 153 1208 206 1276 l 241 1140 l 240 1139 q 268 1161 252 1154 q 286 1165 277 1165 q 317 1153 300 1165 q 412 1118 362 1118 q 434 1120 423 1118 q 544 1192 502 1131 l 453 1255 l 453 1255 q 416 1229 437 1232 q 412 1229 414 1229 q 384 1241 399 1229 q 286 1276 337 1276 m 286 1254 q 370 1223 330 1254 q 412 1206 392 1206 q 419 1207 416 1206 q 456 1225 437 1210 l 511 1187 q 431 1142 475 1149 q 412 1141 421 1141 q 330 1171 370 1141 q 286 1187 308 1187 q 259 1181 273 1187 q 239 1169 249 1177 l 186 1211 q 286 1254 231 1254 z "},"ö":{"ha":697,"x_min":61,"x_max":636,"o":"m 349 177 q 271 210 302 177 q 238 288 238 241 l 238 686 q 271 764 238 731 q 349 796 302 796 q 427 764 394 796 q 459 686 459 731 l 459 288 q 427 210 459 241 q 349 177 394 177 m 349 972 q 145 888 230 972 q 61 686 61 804 l 61 288 q 145 84 61 169 q 349 0 230 0 q 551 84 467 0 q 636 288 636 169 l 636 686 q 551 888 636 804 q 349 972 467 972 m 349 155 q 442 194 404 155 q 481 288 481 233 l 481 686 q 442 779 481 740 q 349 818 404 818 q 255 779 294 818 q 216 686 216 740 l 216 288 q 255 194 216 233 q 349 155 294 155 m 349 951 q 536 873 458 951 q 614 686 614 795 l 614 288 q 536 100 614 178 q 349 22 458 22 q 161 100 239 22 q 83 288 83 178 l 83 686 q 161 873 83 795 q 349 951 239 951 m 393 1124 l 526 1124 l 526 1256 l 393 1256 l 393 1124 m 415 1234 l 503 1234 l 503 1147 l 415 1147 l 415 1234 m 172 1124 l 304 1124 l 304 1256 l 172 1256 l 172 1124 m 194 1234 l 282 1234 l 282 1147 l 194 1147 l 194 1234 z "},"÷":{"ha":652,"x_min":61,"x_max":591,"o":"m 238 618 l 415 618 l 415 795 l 238 795 l 238 618 m 260 772 l 393 772 l 393 640 l 260 640 l 260 772 m 238 176 l 415 176 l 415 353 l 238 353 l 238 176 m 260 330 l 393 330 l 393 198 l 260 198 l 260 330 m 61 397 l 591 397 l 591 574 l 61 574 l 61 397 m 83 551 l 570 551 l 570 419 l 83 419 l 83 551 z "},"ø":{"ha":697,"x_min":61,"x_max":636,"o":"m 349 177 q 267 212 300 177 l 459 616 l 459 288 q 427 210 459 241 q 349 177 394 177 m 238 356 l 238 686 q 271 764 238 731 q 349 796 302 796 q 429 760 397 796 l 238 356 m 628 972 l 530 972 l 507 925 q 349 972 435 972 q 145 888 230 972 q 61 686 61 804 l 61 288 q 122 111 61 189 l 69 0 l 167 0 l 190 48 q 349 0 262 0 q 551 84 467 0 q 636 288 636 169 l 636 686 q 575 862 636 784 l 628 972 m 349 155 q 442 194 404 155 q 481 288 481 233 l 481 715 l 439 626 l 248 222 l 241 208 l 252 197 q 349 155 291 155 m 216 258 l 258 347 l 450 751 l 456 764 l 446 776 q 349 818 406 818 q 255 779 294 818 q 216 686 216 740 l 216 258 m 593 951 l 555 871 l 549 859 l 557 848 q 614 686 614 777 l 614 288 q 536 100 614 178 q 349 22 458 22 q 202 66 269 22 l 180 81 l 170 58 l 153 22 l 104 22 l 142 102 l 148 114 l 139 125 q 83 288 83 197 l 83 686 q 161 873 83 795 q 349 951 239 951 q 495 906 429 951 l 516 892 l 527 916 l 544 951 l 593 951 z "},"ù":{"ha":697,"x_min":61,"x_max":636,"o":"m 636 972 l 459 972 l 459 288 q 427 210 459 241 q 349 177 394 177 q 271 210 302 177 q 238 288 238 241 l 238 972 l 61 972 l 61 288 q 145 84 61 169 q 349 0 230 0 q 551 84 467 0 q 636 288 636 169 l 636 972 m 614 951 l 614 288 q 536 100 614 178 q 349 22 458 22 q 161 100 239 22 q 83 288 83 178 l 83 951 l 216 951 l 216 288 q 255 194 216 233 q 349 155 294 155 q 442 194 404 155 q 481 288 481 233 l 481 951 l 614 951 m 226 1305 l 300 1092 l 410 1092 l 373 1305 l 226 1305 m 257 1284 l 355 1284 l 384 1114 l 315 1114 l 257 1284 z "},"ú":{"ha":697,"x_min":61,"x_max":636,"o":"m 636 972 l 459 972 l 459 288 q 427 210 459 241 q 349 177 394 177 q 271 210 302 177 q 238 288 238 241 l 238 972 l 61 972 l 61 288 q 145 84 61 169 q 349 0 230 0 q 551 84 467 0 q 636 288 636 169 l 636 972 m 614 951 l 614 288 q 536 100 614 178 q 349 22 458 22 q 161 100 239 22 q 83 288 83 178 l 83 951 l 216 951 l 216 288 q 255 194 216 233 q 349 155 294 155 q 442 194 404 155 q 481 288 481 233 l 481 951 l 614 951 m 323 1301 l 287 1087 l 397 1087 l 471 1301 l 323 1301 m 342 1279 l 440 1279 l 382 1109 l 313 1109 l 342 1279 z "},"û":{"ha":697,"x_min":61,"x_max":636,"o":"m 636 972 l 459 972 l 459 288 q 427 210 459 241 q 349 177 394 177 q 271 210 302 177 q 238 288 238 241 l 238 972 l 61 972 l 61 288 q 145 84 61 169 q 349 0 230 0 q 551 84 467 0 q 636 288 636 169 l 636 972 m 614 951 l 614 288 q 536 100 614 178 q 349 22 458 22 q 161 100 239 22 q 83 288 83 178 l 83 951 l 216 951 l 216 288 q 255 194 216 233 q 349 155 294 155 q 442 194 404 155 q 481 288 481 233 l 481 951 l 614 951 m 349 1333 l 174 1133 l 258 1061 l 349 1164 l 439 1061 l 523 1133 l 349 1333 m 205 1135 l 349 1299 l 492 1135 l 441 1092 l 365 1179 l 349 1198 l 332 1179 l 256 1092 l 205 1135 z "},"ü":{"ha":697,"x_min":61,"x_max":636,"o":"m 636 972 l 459 972 l 459 288 q 427 210 459 241 q 349 177 394 177 q 271 210 302 177 q 238 288 238 241 l 238 972 l 61 972 l 61 288 q 145 84 61 169 q 349 0 230 0 q 551 84 467 0 q 636 288 636 169 l 636 972 m 614 951 l 614 288 q 536 100 614 178 q 349 22 458 22 q 161 100 239 22 q 83 288 83 178 l 83 951 l 216 951 l 216 288 q 255 194 216 233 q 349 155 294 155 q 442 194 404 155 q 481 288 481 233 l 481 951 l 614 951 m 393 1124 l 526 1124 l 526 1256 l 393 1256 l 393 1124 m 415 1234 l 503 1234 l 503 1147 l 415 1147 l 415 1234 m 172 1124 l 304 1124 l 304 1256 l 172 1256 l 172 1124 m 194 1234 l 282 1234 l 282 1147 l 194 1147 l 194 1234 z "},"ý":{"ha":818,"x_min":61,"x_max":757,"o":"m 566 972 l 409 588 l 252 972 l 61 972 l 321 336 l 321 0 l 497 0 l 497 336 l 757 972 l 566 972 m 429 580 l 581 951 l 724 951 l 477 345 l 475 340 l 475 22 l 342 22 l 342 340 l 341 345 l 94 951 l 237 951 l 389 580 l 409 530 l 429 580 m 385 1301 l 348 1087 l 458 1087 l 532 1301 l 385 1301 m 404 1279 l 501 1279 l 443 1109 l 374 1109 l 404 1279 z "},"þ":{"ha":719,"x_min":61,"x_max":658,"o":"m 238 376 l 238 597 l 370 597 q 449 564 416 597 q 481 486 481 532 q 449 408 481 441 q 370 376 416 376 l 238 376 m 238 972 l 61 972 l 61 0 l 238 0 l 238 199 l 370 199 q 574 283 490 199 q 658 486 658 368 q 574 690 658 605 q 370 774 490 774 l 238 774 l 238 972 m 216 354 l 370 354 q 465 393 425 354 q 503 486 503 431 q 465 580 503 541 q 370 619 425 619 l 216 619 l 216 354 m 216 951 l 216 751 l 370 751 q 558 674 480 751 q 636 486 636 596 q 558 299 636 376 q 370 221 480 221 l 216 221 l 216 22 l 83 22 l 83 951 l 216 951 z "},"ÿ":{"ha":818,"x_min":61,"x_max":757,"o":"m 566 972 l 409 588 l 252 972 l 61 972 l 321 336 l 321 0 l 497 0 l 497 336 l 757 972 l 566 972 m 429 580 l 581 951 l 724 951 l 477 345 l 475 340 l 475 22 l 342 22 l 342 340 l 341 345 l 94 951 l 237 951 l 389 580 l 409 530 l 429 580 m 460 1124 l 593 1124 l 593 1256 l 460 1256 l 460 1124 m 483 1234 l 571 1234 l 571 1147 l 483 1147 l 483 1234 m 239 1124 l 372 1124 l 372 1256 l 239 1256 l 239 1124 m 262 1234 l 350 1234 l 350 1147 l 262 1147 l 262 1234 z "},"ı":{"ha":299,"x_min":61,"x_max":238,"o":"m 61 0 l 238 0 l 238 972 l 61 972 l 61 0 m 83 951 l 216 951 l 216 22 l 83 22 l 83 951 z "},"ˆ":{"ha":471,"x_min":61,"x_max":410,"o":"m 235 1055 l 61 855 l 144 783 l 235 886 l 326 783 l 410 855 l 235 1055 m 92 857 l 235 1021 l 378 857 l 328 814 l 252 901 l 235 920 l 218 901 l 142 814 l 92 857 z "},"˚":{"ha":401,"x_min":61,"x_max":340,"o":"m 200 867 q 164 882 179 867 q 149 918 149 897 q 164 954 149 939 q 200 968 179 968 q 236 954 221 968 q 251 918 251 939 q 236 882 251 897 q 200 867 221 867 m 200 1057 q 102 1016 142 1057 q 61 918 61 975 q 102 819 61 860 q 200 779 142 779 q 298 819 258 779 q 340 918 340 860 q 298 1016 340 975 q 200 1057 258 1057 m 200 845 q 252 866 231 845 q 273 918 273 888 q 252 969 273 948 q 200 991 231 991 q 149 969 170 991 q 127 918 127 948 q 149 866 127 888 q 200 845 170 845 m 200 1035 q 283 1000 249 1035 q 317 918 317 966 q 283 835 317 869 q 200 801 249 801 q 117 835 152 801 q 83 918 83 869 q 117 1000 83 966 q 200 1035 152 1035 z "},"˜":{"ha":513,"x_min":61,"x_max":452,"o":"m 194 998 q 61 930 114 998 l 149 862 l 148 861 q 176 883 160 876 q 193 887 185 887 q 224 875 208 887 q 320 840 270 840 q 342 842 331 840 q 452 913 410 853 l 361 977 l 361 977 q 324 951 345 954 q 320 951 321 951 q 292 963 307 951 q 194 998 245 998 m 194 976 q 278 945 237 976 q 320 928 300 928 q 327 929 323 928 q 363 947 345 932 l 419 909 q 338 864 382 871 q 320 863 329 863 q 238 892 277 863 q 193 909 216 909 q 167 903 180 909 q 147 891 157 899 l 94 932 q 194 976 139 976 z "},"‘":{"ha":210,"x_min":61,"x_max":149,"o":"m 61 793 l 149 793 l 149 970 l 61 970 l 61 793 m 83 948 l 127 948 l 127 816 l 83 816 l 83 948 z "},"’":{"ha":210,"x_min":61,"x_max":149,"o":"m 61 793 l 149 793 l 149 970 l 61 970 l 61 793 m 83 948 l 127 948 l 127 816 l 83 816 l 83 948 z "},"“":{"ha":343,"x_min":61,"x_max":282,"o":"m 61 793 l 149 793 l 149 970 l 61 970 l 61 793 m 83 948 l 127 948 l 127 816 l 83 816 l 83 948 m 194 793 l 282 793 l 282 970 l 194 970 l 194 793 m 216 948 l 260 948 l 260 816 l 216 816 l 216 948 z "},"”":{"ha":343,"x_min":61,"x_max":282,"o":"m 61 793 l 149 793 l 149 970 l 61 970 l 61 793 m 83 948 l 127 948 l 127 816 l 83 816 l 83 948 m 194 793 l 282 793 l 282 970 l 194 970 l 194 793 m 216 948 l 260 948 l 260 816 l 216 816 l 216 948 z "},"‹":{"ha":531,"x_min":61,"x_max":470,"o":"m 345 767 l 61 484 l 345 200 l 470 325 l 311 484 l 470 642 l 345 767 m 92 484 l 345 736 l 438 642 l 296 499 l 280 484 l 296 468 l 438 325 l 345 231 l 92 484 z "},"›":{"ha":531,"x_min":61,"x_max":470,"o":"m 186 769 l 61 644 l 220 486 l 61 327 l 186 202 l 470 486 l 186 769 m 92 327 l 235 470 l 251 486 l 235 501 l 92 644 l 186 738 l 438 486 l 186 233 l 92 327 z "},"€":{"ha":741,"x_min":61,"x_max":680,"o":"m 393 972 q 189 888 274 972 q 105 686 105 804 l 105 597 l 61 597 l 61 509 l 105 509 l 105 465 l 61 465 l 61 376 l 105 376 l 105 288 q 189 84 105 169 q 393 0 274 0 q 595 84 511 0 q 680 288 680 169 l 680 309 l 503 309 l 503 288 q 471 210 503 241 q 393 177 438 177 q 315 210 347 177 q 282 288 282 241 l 282 376 l 460 376 l 460 465 l 282 465 l 282 509 l 460 509 l 460 597 l 282 597 l 282 686 q 315 764 282 731 q 393 796 347 796 q 471 764 438 796 q 503 686 503 731 l 503 663 l 680 663 l 680 686 q 595 888 680 804 q 393 972 511 972 m 393 951 q 580 873 503 951 q 658 686 658 795 l 526 686 q 486 779 526 740 q 393 818 448 818 q 299 779 338 818 q 260 686 260 740 l 260 575 l 438 575 l 438 530 l 260 530 l 260 442 l 438 442 l 438 398 l 260 398 l 260 288 q 299 194 260 233 q 393 155 338 155 q 486 194 448 155 q 526 288 526 233 l 658 288 q 580 100 658 178 q 393 22 503 22 q 205 100 283 22 q 127 288 127 178 l 127 398 l 83 398 l 83 442 l 127 442 l 127 530 l 83 530 l 83 575 l 127 575 l 127 686 q 205 873 127 795 q 393 951 283 951 z "},"−":{"ha":652,"x_min":61,"x_max":591,"o":"m 61 395 l 591 395 l 591 572 l 61 572 l 61 395 m 83 550 l 570 550 l 570 418 l 83 418 l 83 550 z "},"":{"ha":728,"x_min":0,"x_max":0,"o":""},"ﬁ":{"ha":728,"x_min":0,"x_max":0,"o":""},"":{"ha":733,"x_min":0,"x_max":0,"o":""},"ﬂ":{"ha":733,"x_min":0,"x_max":0,"o":""}}}
